<svg width="1101" height="100" viewBox="0 0 1101 100" fill="none" xmlns="http://www.w3.org/2000/svg">
<path d="M14.9404 35.6816C11.3857 34.2428 8.4235 32.2116 6.05371 29.5879C3.76855 26.9642 1.90658 23.875 0.467773 20.3203C1.31413 18.0352 2.66829 16.1309 4.53027 14.6074C6.39225 12.9993 8.46582 11.6452 10.751 10.5449C13.1208 9.44466 15.6175 8.55599 18.2412 7.87891C20.8649 7.20182 23.404 6.60938 25.8584 6.10156C26.3662 6.27083 26.6201 6.27083 26.6201 6.10156C26.6201 5.93229 26.8317 6.01693 27.2549 6.35547C30.3018 5.42448 33.8141 4.53581 37.792 3.68945C41.7699 2.75846 46.0016 2.41992 50.4873 2.67383C51.0798 2.33529 51.7992 2.16602 52.6455 2.16602C53.4919 2.08138 54.3805 2.03906 55.3115 2.03906C56.2425 2.03906 57.1312 2.03906 57.9775 2.03906C58.8239 1.95443 59.5433 1.78516 60.1357 1.53125C60.6436 2.1237 61.4053 2.50456 62.4209 2.67383C63.4365 2.75846 64.4945 3.18164 65.5947 3.94336C65.9333 4.02799 65.9333 3.90104 65.5947 3.5625C65.2562 3.13932 65.2985 2.8431 65.7217 2.67383C66.8219 2.67383 67.7952 2.92773 68.6416 3.43555C69.488 3.94336 70.2497 4.53581 70.9268 5.21289C71.6885 5.80534 72.3656 6.35547 72.958 6.86328C73.6351 7.37109 74.3545 7.625 75.1162 7.625C75.8779 8.55599 76.7666 9.44466 77.7822 10.291C78.8825 11.0527 79.8981 11.8568 80.8291 12.7031C81.8447 13.5495 82.6488 14.4805 83.2412 15.4961C83.9183 16.5117 84.2568 17.6543 84.2568 18.9238C84.1722 19.4316 84.3415 19.7279 84.7646 19.8125C85.1878 19.8971 85.484 20.151 85.6533 20.5742C85.738 23.7057 85.2301 26.4141 84.1299 28.6992C83.1143 30.9844 81.8024 33.1003 80.1943 35.0469C78.5863 36.9089 76.8512 38.6862 74.9893 40.3789C73.2119 42.0716 71.5615 43.8913 70.0381 45.8379C71.0537 47.1074 72.1963 48.2923 73.4658 49.3926C74.82 50.4082 76.1742 51.4238 77.5283 52.4395C78.8825 53.4551 80.152 54.5553 81.3369 55.7402C82.6064 56.8405 83.6644 58.11 84.5107 59.5488C84.7646 60.0566 85.3148 60.3952 86.1611 60.5645C86.415 61.5801 86.7536 62.638 87.1768 63.7383C87.6846 64.7539 88.1501 65.7695 88.5732 66.7852C88.9964 67.7161 89.2503 68.5625 89.335 69.3242C89.4196 70.0859 89.208 70.7207 88.7002 71.2285C89.2926 71.5671 89.6312 72.1172 89.7158 72.8789C89.8005 73.556 89.8005 74.1061 89.7158 74.5293C87.8538 76.8145 86.5843 78.4225 85.9072 79.3535C85.2301 80.2845 84.7223 80.9616 84.3838 81.3848C84.0452 81.8079 83.7067 82.1888 83.3682 82.5273C83.0296 82.8659 82.2679 83.543 81.083 84.5586C76.5973 87.2669 71.9001 89.7214 66.9912 91.9219C62.167 94.0378 57.1312 95.4766 51.8838 96.2383C51.4606 96.8307 50.8258 97.2962 49.9795 97.6348C49.2178 98.0579 48.3291 98.3965 47.3135 98.6504C46.2979 98.9043 45.1976 99.1159 44.0127 99.2852C42.9124 99.4544 41.8968 99.6237 40.9658 99.793C40.5426 99.6237 40.2887 99.3275 40.2041 98.9043C40.2041 98.5658 39.9925 98.3118 39.5693 98.1426C39.4847 99.1582 39.0192 99.666 38.1729 99.666C37.4111 99.7507 36.4378 99.5814 35.2529 99.1582C34.068 98.735 32.8408 98.1426 31.5713 97.3809C30.3018 96.6191 29.2015 95.8997 28.2705 95.2227C27.8473 95.9844 27.2972 96.7884 26.6201 97.6348C26.0277 98.4811 25.3929 99.0736 24.7158 99.4121C23.5309 99.2428 22.6423 99.1159 22.0498 99.0312C21.542 98.9466 21.0342 99.1582 20.5264 99.666C19.8493 99.3275 19.3415 98.9466 19.0029 98.5234C18.6644 98.1849 18.3258 97.804 17.9873 97.3809C17.6488 97.0423 17.2679 96.7461 16.8447 96.4922C16.4215 96.1536 15.7868 95.8574 14.9404 95.6035C15.1097 95.1803 14.9827 94.5456 14.5596 93.6992C14.1364 92.7682 13.5439 92.2181 12.7822 92.0488C13.2054 91.3717 13.0361 90.5254 12.2744 89.5098C11.5127 88.4095 10.9202 87.1823 10.4971 85.8281C10.5817 85.2357 10.624 84.6432 10.624 84.0508C10.7087 83.3737 10.7933 82.7812 10.8779 82.2734C11.0472 81.681 11.2588 81.1732 11.5127 80.75C11.7666 80.3268 12.1898 80.0306 12.7822 79.8613C12.6976 78.7611 12.359 77.7031 11.7666 76.6875C12.5283 76.0951 13.0361 75.3757 13.29 74.5293C13.5439 73.5983 13.7555 72.6673 13.9248 71.7363C14.1787 70.8053 14.4749 69.9167 14.8135 69.0703C15.152 68.1393 15.7021 67.3776 16.4639 66.7852C16.2946 66.5312 16.1253 66.3197 15.9561 66.1504C15.7868 65.9811 15.7021 65.6849 15.7021 65.2617C16.9717 63.1458 17.8604 61.3685 18.3682 59.9297C18.876 58.4062 19.2568 56.9674 19.5107 55.6133C19.8493 54.1745 20.1878 52.651 20.5264 51.043C20.8649 49.4349 21.542 47.4036 22.5576 44.9492C22.473 43.4258 22.6423 42.0716 23.0654 40.8867C23.4886 39.7018 23.9118 38.5592 24.335 37.459C24.8428 36.2741 25.2236 35.0469 25.4775 33.7773C25.7314 32.5078 25.6891 31.0267 25.3506 29.334C23.9118 29.5033 22.8538 30.0111 22.1768 30.8574C21.5843 31.7038 21.2035 32.8464 21.0342 34.2852C20.2725 34.9622 19.2992 35.3008 18.1143 35.3008C16.9294 35.2161 15.8714 35.3431 14.9404 35.6816ZM70.7998 60.1836C67.5837 58.4062 64.6214 57.3483 61.9131 57.0098C59.2894 56.6712 56.7503 56.7135 54.2959 57.1367C51.9261 57.4753 49.641 57.9831 47.4404 58.6602C45.2399 59.3372 43.0394 59.8451 40.8389 60.1836C39.7386 63.0612 38.596 66.235 37.4111 69.7051C36.2262 73.1751 35.0837 76.5605 33.9834 79.8613C37.0303 79.4382 39.8232 78.8034 42.3623 77.957C44.9014 77.1107 47.3558 76.1797 49.7256 75.1641C52.0954 74.0638 54.4229 73.0059 56.708 71.9902C58.9932 70.89 61.363 69.8743 63.8174 68.9434C64.0713 67.9277 64.6214 67.1237 65.4678 66.5312C66.3141 65.9388 67.1605 65.3887 68.0068 64.8809C68.8532 64.2884 69.5726 63.6536 70.165 62.9766C70.7575 62.2995 70.9691 61.3685 70.7998 60.1836ZM61.9131 20.4473C56.6657 20.278 51.5029 20.7435 46.4248 21.8438C41.3467 22.944 37.0726 24.5521 33.6025 26.668C35.2952 28.1068 37.0303 29.3763 38.8076 30.4766C40.6696 31.5768 42.0661 33.0579 42.9971 34.9199C47.0596 33.3118 50.6143 31.2806 53.6611 28.8262C56.708 26.2871 59.4587 23.4941 61.9131 20.4473ZM100.761 92.6836C100.084 92.0065 99.5758 91.2025 99.2373 90.2715C98.9834 89.3405 98.3063 88.5788 97.2061 87.9863C97.0368 86.7168 96.7829 85.278 96.4443 83.6699C96.1904 81.9772 95.8942 80.2845 95.5557 78.5918C95.3018 76.8145 95.0902 75.0794 94.9209 73.3867C94.8363 71.6094 94.9209 70.0013 95.1748 68.5625C95.3441 67.8008 95.598 67.0814 95.9365 66.4043C96.3597 65.7272 96.7406 65.0924 97.0791 64.5C97.5023 63.8229 97.7985 63.1458 97.9678 62.4688C98.2217 61.7917 98.264 61.1146 98.0947 60.4375C98.6025 60.3529 98.8988 60.099 98.9834 59.6758C99.1527 59.168 99.5758 58.9987 100.253 59.168C100.845 57.306 101.48 55.571 102.157 53.9629C102.834 52.3548 103.554 50.7891 104.315 49.2656C105.077 47.7422 105.839 46.2188 106.601 44.6953C107.447 43.0872 108.209 41.3099 108.886 39.3633C107.447 38.0091 106.389 36.5703 105.712 35.0469C105.119 33.4388 104.654 31.8307 104.315 30.2227C103.977 28.6146 103.723 27.0065 103.554 25.3984C103.384 23.7057 103.046 22.013 102.538 20.3203C103.554 18.7969 104.781 17.5697 106.22 16.6387C107.659 15.623 109.224 14.819 110.917 14.2266C112.694 13.5495 114.599 13.0417 116.63 12.7031C118.661 12.2799 120.819 11.8145 123.104 11.3066C127.167 10.0371 130.806 9.0638 134.022 8.38672C137.239 7.625 140.37 7.03255 143.417 6.60938C146.464 6.10156 149.638 5.67839 152.938 5.33984C156.239 4.91667 160.048 4.32422 164.364 3.5625C164.449 3.81641 164.576 3.94336 164.745 3.94336C164.999 3.94336 165.295 3.94336 165.634 3.94336C165.888 4.53581 166.353 4.83203 167.03 4.83203C167.03 4.57812 166.988 4.36654 166.903 4.19727C166.903 3.94336 166.903 3.73177 166.903 3.5625C167.073 3.5625 167.284 3.60482 167.538 3.68945C167.877 3.77409 168.131 3.85872 168.3 3.94336C168.554 4.02799 168.765 4.02799 168.935 3.94336C169.104 3.77409 169.146 3.47786 169.062 3.05469C170.077 4.83203 171.389 6.31315 172.997 7.49805C174.605 8.59831 176.382 9.57161 178.329 10.418C178.414 11.1797 178.414 11.7298 178.329 12.0684C178.329 12.4069 178.287 12.7454 178.202 13.084C178.118 13.3379 178.075 13.6764 178.075 14.0996C178.075 14.4382 178.16 14.946 178.329 15.623C176.975 17.9082 175.409 19.6855 173.632 20.9551C171.939 22.2246 170.119 23.1979 168.173 23.875C166.226 24.5521 164.153 25.0599 161.952 25.3984C159.836 25.737 157.636 26.1178 155.351 26.541C153.15 26.8796 150.907 27.3874 148.622 28.0645C146.337 28.7415 144.094 29.7572 141.894 31.1113C141.216 30.8574 140.582 30.7728 139.989 30.8574C139.481 30.8574 138.931 30.9421 138.339 31.1113C137.746 31.2806 137.069 31.4499 136.308 31.6191C135.631 31.7884 134.784 31.7884 133.769 31.6191C133.091 32.2116 132.287 32.6348 131.356 32.8887C130.51 33.1426 129.621 33.3965 128.69 33.6504C129.114 34.5814 129.283 35.5124 129.198 36.4434C129.198 37.3743 129.325 38.1784 129.579 38.8555C133.134 39.194 137.069 39.194 141.386 38.8555C145.702 38.4323 149.934 38.1361 154.081 37.9668C154.166 38.39 154.123 38.6862 153.954 38.8555C153.785 39.0247 153.7 39.321 153.7 39.7441C154.462 40.252 155.181 40.8867 155.858 41.6484C156.535 42.4102 157.213 43.1719 157.89 43.9336C158.651 44.6107 159.413 45.2031 160.175 45.7109C160.937 46.1341 161.825 46.3034 162.841 46.2188C163.264 47.0651 163.56 47.9538 163.729 48.8848C163.899 49.8158 163.772 50.7891 163.349 51.8047C161.656 52.9049 160.006 54.0475 158.397 55.2324C156.789 56.3327 155.097 57.3483 153.319 58.2793C151.627 59.2103 149.765 59.972 147.733 60.5645C145.702 61.1569 143.502 61.4108 141.132 61.3262C140.709 61.3262 140.328 61.3262 139.989 61.3262C139.735 61.3262 139.397 61.1569 138.974 60.8184C138.127 61.2415 136.985 61.4108 135.546 61.3262C134.192 61.1569 133.049 61.2839 132.118 61.707C130.933 61.2839 129.537 61.0723 127.929 61.0723C126.405 61.0723 125.051 60.8607 123.866 60.4375C122.343 62.638 120.904 64.9655 119.55 67.4199C118.196 69.7897 117.011 72.3288 115.995 75.0371C119.465 75.5449 122.343 75.7565 124.628 75.6719C126.913 75.5872 129.071 75.418 131.103 75.1641C133.134 74.9102 135.207 74.6562 137.323 74.4023C139.524 74.1484 142.19 74.0638 145.321 74.1484C147.437 73.1328 149.849 72.4557 152.558 72.1172C155.351 71.694 157.932 71.1016 160.302 70.3398C161.148 70.5938 161.868 71.1016 162.46 71.8633C163.052 72.5404 163.603 73.2598 164.11 74.0215C164.703 74.6986 165.295 75.291 165.888 75.7988C166.48 76.3066 167.242 76.4759 168.173 76.3066C168.596 76.7298 168.85 77.2376 168.935 77.8301C169.104 78.4225 169.231 78.9727 169.315 79.4805C169.485 79.9883 169.696 80.4115 169.95 80.75C170.204 81.0039 170.67 81.0885 171.347 81.0039C169.739 84.3047 167.919 86.8438 165.888 88.6211C163.941 90.3984 161.698 91.7949 159.159 92.8105C156.705 93.7415 153.912 94.4609 150.78 94.9688C147.733 95.3919 144.306 95.9421 140.497 96.6191C139.566 96.7884 138.762 96.7884 138.085 96.6191C137.493 96.3652 136.858 96.2383 136.181 96.2383C133.811 96.6615 130.976 97.0846 127.675 97.5078C124.459 97.931 121.2 98.1003 117.899 98.0156C114.599 97.931 111.425 97.5078 108.378 96.7461C105.331 95.9844 102.792 94.6302 100.761 92.6836ZM185.692 85.9551C183.238 84.0931 181.207 81.7656 179.599 78.9727C178.075 76.1797 176.848 73.2174 175.917 70.0859C175.071 66.9544 174.478 63.7383 174.14 60.4375C173.886 57.0521 173.801 53.8359 173.886 50.7891C174.647 48.5039 175.578 46.4303 176.679 44.5684C177.779 42.6217 179.006 40.8021 180.36 39.1094C181.715 37.332 183.111 35.6816 184.55 34.1582C186.073 32.5501 187.554 30.9421 188.993 29.334C189.501 29.334 189.966 29.4609 190.39 29.7148C190.728 28.7839 191.236 27.9798 191.913 27.3027C192.59 26.6257 193.31 26.0332 194.071 25.5254C194.833 24.9329 195.595 24.3828 196.356 23.875C197.118 23.2826 197.753 22.6055 198.261 21.8438C200.377 21.3359 202.239 20.6165 203.847 19.6855C205.539 18.7546 207.147 17.7389 208.671 16.6387C210.194 15.5384 211.76 14.5228 213.368 13.5918C214.976 12.6608 216.838 11.9414 218.954 11.4336C219.716 10.5872 220.647 9.86784 221.747 9.27539C222.932 8.68294 224.075 8.13281 225.175 7.625C226.36 7.11719 227.46 6.56706 228.476 5.97461C229.576 5.38216 230.465 4.57812 231.142 3.5625C231.649 4.23958 232.369 4.49349 233.3 4.32422C234.231 4.07031 235.077 3.81641 235.839 3.5625C236.347 3.47786 236.77 3.5625 237.108 3.81641C237.447 4.07031 237.743 4.36654 237.997 4.70508C238.336 4.95898 238.59 5.12826 238.759 5.21289C239.013 5.29753 239.267 5.04362 239.521 4.45117C240.198 4.53581 240.367 4.83203 240.028 5.33984C239.774 5.84766 239.605 6.1862 239.521 6.35547C240.367 6.1862 241.044 6.35547 241.552 6.86328C242.144 7.28646 243.033 7.58268 244.218 7.75195C244.641 8.17513 244.768 8.51367 244.599 8.76758C244.429 9.02148 244.302 9.44466 244.218 10.0371C247.265 10.9681 249.211 12.4492 250.058 14.4805C250.904 16.4271 250.989 18.5007 250.312 20.7012C249.634 22.8171 248.365 24.806 246.503 26.668C244.726 28.4453 242.737 29.6302 240.536 30.2227C237.912 30.8997 235.458 31.5768 233.173 32.2539C230.972 32.931 228.814 33.6927 226.698 34.5391C224.667 35.3854 222.72 36.401 220.858 37.5859C219.081 38.6862 217.515 39.998 216.161 41.5215C213.791 42.1986 211.633 43.1296 209.687 44.3145C207.825 45.4993 206.047 46.8112 204.354 48.25C202.746 49.6888 201.181 51.2122 199.657 52.8203C198.134 54.3438 196.61 55.8672 195.087 57.3906C195.087 58.8294 194.833 59.9297 194.325 60.6914C193.817 61.4531 193.267 62.2148 192.675 62.9766C192.844 64.5846 193.183 65.9811 193.69 67.166C194.283 68.2663 194.875 69.4089 195.468 70.5938C202.239 72.625 209.39 73.8945 216.923 74.4023C224.54 74.8255 232.073 75.0794 239.521 75.1641C240.282 76.1797 241.129 77.153 242.06 78.084C243.075 78.9303 243.964 79.819 244.726 80.75C245.572 81.681 246.207 82.7812 246.63 84.0508C247.138 85.2357 247.265 86.6745 247.011 88.3672C245.572 89.806 244.006 91.2025 242.313 92.5566C240.621 93.8262 238.928 95.0957 237.235 96.3652C236.474 96.4499 235.543 96.4499 234.442 96.3652C233.427 96.2806 232.326 96.2383 231.142 96.2383C230.041 96.2383 228.899 96.3229 227.714 96.4922C226.614 96.5768 225.556 96.8307 224.54 97.2539C219.208 97.0846 213.749 96.4499 208.163 95.3496C202.577 94.1647 197.414 92.7682 192.675 91.1602C191.744 90.0599 190.771 89.0443 189.755 88.1133C188.739 87.0977 187.385 86.3783 185.692 85.9551ZM255.897 73.7676C255.982 73.429 256.024 73.1751 256.024 73.0059C256.109 72.8366 255.982 72.625 255.644 72.3711C255.474 71.7786 255.601 71.3978 256.024 71.2285C256.448 71.0592 256.871 70.89 257.294 70.7207C257.717 65.6426 258.563 61.0299 259.833 56.8828C261.187 52.651 262.626 48.5462 264.149 44.5684C265.757 40.5905 267.323 36.6126 268.847 32.6348C270.455 28.5723 271.767 24.1712 272.782 19.4316C273.882 18.3314 274.771 17.0195 275.448 15.4961C276.21 13.9727 276.929 12.4492 277.606 10.9258C278.368 9.31771 279.215 7.79427 280.146 6.35547C281.161 4.91667 282.515 3.73177 284.208 2.80078C284.97 2.88542 285.647 3.05469 286.239 3.30859C286.916 3.47786 287.551 3.68945 288.144 3.94336C288.736 4.19727 289.371 4.40885 290.048 4.57812C290.725 4.7474 291.444 4.83203 292.206 4.83203C292.545 5.25521 292.841 5.76302 293.095 6.35547C293.349 6.86328 293.687 7.32878 294.11 7.75195L296.396 7.37109C297.496 8.30208 298.469 9.48698 299.315 10.9258C300.162 12.2799 300.754 13.7188 301.093 15.2422C301.431 16.681 301.389 18.1198 300.966 19.5586C300.543 20.9128 299.569 21.9707 298.046 22.7324C298.131 23.2402 298.131 23.6211 298.046 23.875C297.961 24.1289 297.834 24.3828 297.665 24.6367C297.58 24.806 297.538 25.0176 297.538 25.2715C297.538 25.4408 297.707 25.6947 298.046 26.0332C297.115 26.7949 296.269 27.7682 295.507 28.9531C294.745 30.0534 294.11 31.2383 293.603 32.5078C293.095 33.7773 292.672 35.0469 292.333 36.3164C292.079 37.5859 291.91 38.7708 291.825 39.8711C294.28 37.332 297.157 34.9622 300.458 32.7617C303.759 30.5612 306.636 28.4876 309.091 26.541C311.037 25.1868 312.73 23.9173 314.169 22.7324C315.692 21.4629 317.216 20.3203 318.739 19.3047C320.263 18.2044 321.828 17.1888 323.437 16.2578C325.129 15.2422 326.822 14.1419 328.515 12.957C329.361 12.6185 329.996 12.5339 330.419 12.7031C330.927 12.8724 331.392 13.084 331.815 13.3379C331.9 12.7454 331.773 12.4069 331.435 12.3223C331.096 12.153 330.969 11.7298 331.054 11.0527C332.493 10.6296 333.762 10.1217 334.862 9.5293C336.047 8.93685 337.274 8.38672 338.544 7.87891C339.39 8.8099 340.237 9.82552 341.083 10.9258C341.929 11.9414 343.072 12.4915 344.511 12.5762C345.019 13.6764 345.611 14.5228 346.288 15.1152C347.05 15.623 347.769 16.1309 348.446 16.6387C349.208 17.1465 349.843 17.7812 350.351 18.543C350.858 19.2201 351.155 20.3203 351.239 21.8438C350.901 22.5208 350.478 23.2826 349.97 24.1289C349.547 24.8906 349.166 25.8639 348.827 27.0488C346.796 28.9108 344.722 30.5612 342.606 32C340.575 33.3542 338.459 34.666 336.259 35.9355C334.143 37.2051 331.942 38.5169 329.657 39.8711C327.457 41.2253 325.214 42.791 322.929 44.5684C322.421 45.3301 321.786 46.0072 321.024 46.5996C320.263 47.1921 319.459 47.7845 318.612 48.377C317.851 48.8848 317.089 49.4349 316.327 50.0273C315.65 50.6198 315.1 51.3392 314.677 52.1855C314.338 52.1855 314.042 52.2279 313.788 52.3125C313.534 52.3125 313.238 52.3548 312.899 52.4395C312.561 53.1165 312.053 53.6667 311.376 54.0898C310.784 54.513 310.36 55.0632 310.106 55.7402C311.63 59.041 313.619 61.5378 316.073 63.2305C318.528 64.9232 321.278 66.1504 324.325 66.9121C327.372 67.6738 330.673 68.097 334.228 68.1816C337.782 68.2663 341.464 68.3086 345.272 68.3086C345.696 68.224 345.865 68.0124 345.78 67.6738C345.78 67.2507 346.034 67.0814 346.542 67.166C347.812 67.5892 348.869 68.097 349.716 68.6895C350.562 69.2819 351.366 69.9167 352.128 70.5938C352.89 71.2708 353.609 71.9902 354.286 72.752C355.048 73.429 355.894 74.1484 356.825 74.9102C356.656 78.888 355.471 82.1465 353.271 84.6855C351.155 87.14 348.319 89.1289 344.765 90.6523C339.856 90.8216 335.582 90.6947 331.942 90.2715C328.303 89.8483 324.706 88.9173 321.151 87.4785C320.897 87.3939 320.644 87.14 320.39 86.7168C320.22 86.2936 320.051 85.9974 319.882 85.8281C319.205 85.4049 318.443 85.2357 317.597 85.3203C316.75 85.4049 316.031 85.3203 315.438 85.0664C314.677 84.7279 313.407 83.9661 311.63 82.7812C309.937 81.5964 308.371 80.4961 306.933 79.4805C305.155 78.0417 303.42 76.6452 301.728 75.291C300.119 73.8522 298.681 72.2865 297.411 70.5938C297.157 70.1706 296.776 69.959 296.269 69.959C295.845 69.959 295.422 69.832 294.999 69.5781C292.037 71.4401 289.54 73.7676 287.509 76.5605C285.562 79.2689 283.658 82.0618 281.796 84.9395C279.934 87.7324 277.945 90.3984 275.829 92.9375C273.798 95.3919 271.216 97.2962 268.085 98.6504C267.154 98.6504 266.35 98.4811 265.673 98.1426C264.996 97.8887 264.361 97.5078 263.769 97C263.176 96.5768 262.584 96.1536 261.991 95.7305C261.399 95.3073 260.722 95.0111 259.96 94.8418C259.96 93.6569 259.706 92.5566 259.198 91.541C258.775 90.4408 258.31 89.4674 257.802 88.6211C257.379 87.6901 257.04 86.8014 256.786 85.9551C256.617 85.1087 256.871 84.2624 257.548 83.416C256.617 82.6543 255.728 82.0195 254.882 81.5117C255.474 80.9193 255.728 80.3691 255.644 79.8613C255.644 79.3535 255.517 78.8457 255.263 78.3379C255.009 77.8301 254.797 77.3223 254.628 76.8145C254.543 76.222 254.713 75.5872 255.136 74.9102C255.474 74.8255 255.601 74.6562 255.517 74.4023C255.517 74.1484 255.644 73.9368 255.897 73.7676ZM381.2 88.1133C381.623 90.6523 381.454 92.6413 380.692 94.0801C380.015 95.5189 379 96.5768 377.646 97.2539C376.376 98.0156 374.895 98.4388 373.202 98.5234C371.509 98.6081 369.901 98.5234 368.378 98.2695C367.532 97.0846 366.77 95.6035 366.093 93.8262C365.416 92.0488 364.781 90.2292 364.188 88.3672C363.596 86.4206 363.046 84.5163 362.538 82.6543C362.115 80.7923 361.734 79.1419 361.396 77.7031C361.819 76.6875 362.073 75.5449 362.157 74.2754C362.326 72.9212 362.411 71.5671 362.411 70.2129C362.496 68.8587 362.538 67.5046 362.538 66.1504C362.623 64.7116 362.75 63.3574 362.919 62.0879C363.511 58.5332 364.358 55.1478 365.458 51.9316C366.643 48.7155 367.574 45.3724 368.251 41.9023C368.42 41.1406 368.336 40.4212 367.997 39.7441C367.743 39.0671 367.701 38.4323 367.87 37.8398C367.955 37.5013 368.209 37.2897 368.632 37.2051C369.055 37.0358 369.309 36.7396 369.394 36.3164C369.647 35.3854 369.69 34.6237 369.521 34.0312C369.436 33.4388 369.605 32.7194 370.028 31.873C370.451 31.196 370.959 30.2227 371.552 28.9531C372.229 27.599 372.483 26.2025 372.313 24.7637C373.075 24.2559 373.795 23.6634 374.472 22.9863C375.149 22.3092 375.826 21.7168 376.503 21.209C377.265 20.6165 378.069 20.1087 378.915 19.6855C379.846 19.2624 380.946 19.0508 382.216 19.0508C382.893 19.8971 383.316 20.8281 383.485 21.8438C383.739 22.8594 383.951 23.875 384.12 24.8906C384.374 25.9062 384.713 26.8796 385.136 27.8105C385.559 28.6569 386.278 29.334 387.294 29.8418C387.294 30.5189 387.294 31.3652 387.294 32.3809C387.294 33.3965 387.336 34.4121 387.421 35.4277C387.506 36.3587 387.675 37.2474 387.929 38.0938C388.267 38.8555 388.775 39.3633 389.452 39.6172C387.929 43.6797 386.49 47.6999 385.136 51.6777C383.866 55.6556 382.808 59.6758 381.962 63.7383C381.116 67.7161 380.565 71.7363 380.312 75.7988C380.142 79.8613 380.438 83.9661 381.2 88.1133ZM423.983 97.5078C420.259 98.0156 416.874 97.8464 413.827 97C410.78 96.1536 408.03 94.8418 405.575 93.0645C403.205 91.2871 401.132 89.1712 399.354 86.7168C397.662 84.2624 396.265 81.6387 395.165 78.8457C394.403 73.0905 394.615 67.8854 395.8 63.2305C396.985 58.4909 398.72 54.1322 401.005 50.1543C403.29 46.1764 405.871 42.4525 408.749 38.9824C411.711 35.5124 414.547 32.1693 417.255 28.9531C417.847 29.207 418.313 29.207 418.651 28.9531C419.075 28.6992 419.413 28.3607 419.667 27.9375C420.006 27.5143 420.344 27.0911 420.683 26.668C421.106 26.2448 421.571 25.9486 422.079 25.7793C422.418 25.0176 422.841 24.3828 423.349 23.875C423.941 23.3672 424.534 22.9017 425.126 22.4785C425.803 21.9707 426.396 21.4629 426.903 20.9551C427.496 20.4473 428.004 19.8125 428.427 19.0508C429.273 18.8815 429.993 18.5853 430.585 18.1621C431.262 17.7389 431.854 17.2734 432.362 16.7656C432.955 16.2578 433.547 15.7923 434.14 15.3691C434.732 14.946 435.451 14.6074 436.298 14.3535V12.7031C438.16 11.8568 439.514 10.9258 440.36 9.91016C441.207 8.89453 442.222 7.58268 443.407 5.97461C444.338 5.88997 445.058 5.84766 445.565 5.84766C446.158 5.84766 447.047 5.76302 448.231 5.59375C448.993 4.15495 449.713 3.09701 450.39 2.41992C451.067 1.74284 452.04 0.98112 453.31 0.134766C454.579 0.811849 455.933 1.23503 457.372 1.4043C458.811 1.48893 460.123 2.1237 461.308 3.30859C461.392 4.32422 461.688 5.12826 462.196 5.7207C462.704 6.22852 463.254 6.73633 463.847 7.24414C464.439 7.66732 465.032 8.13281 465.624 8.64062C466.216 9.14844 466.597 9.86784 466.767 10.7988C467.19 10.7988 467.444 10.7142 467.528 10.5449C467.698 10.3757 467.994 10.3333 468.417 10.418C468.586 11.0951 468.756 11.6452 468.925 12.0684C469.094 12.4915 469.263 12.8724 469.433 13.2109C469.687 13.5495 469.898 13.9303 470.067 14.3535C470.321 14.7767 470.533 15.2845 470.702 15.877C470.279 16.8926 469.898 17.9928 469.56 19.1777C469.221 20.278 468.544 21.0397 467.528 21.4629C467.528 22.14 467.782 22.5208 468.29 22.6055C468.798 22.6055 469.094 22.9017 469.179 23.4941C469.263 24.2559 469.136 24.8906 468.798 25.3984C471.168 29.3763 473.326 33.5658 475.272 37.9668C477.219 42.2832 479.42 46.4303 481.874 50.4082C481.705 51.5931 481.747 52.778 482.001 53.9629C482.34 55.0632 482.72 56.1634 483.144 57.2637C483.651 58.3639 484.117 59.4642 484.54 60.5645C484.963 61.6647 485.259 62.765 485.429 63.8652C485.598 65.304 485.598 66.8698 485.429 68.5625C485.259 70.1706 484.921 71.7363 484.413 73.2598C483.905 74.7832 483.228 76.222 482.382 77.5762C481.535 78.8457 480.562 79.819 479.462 80.4961C478.108 82.1888 476.415 83.5853 474.384 84.6855C472.353 85.7012 470.491 86.9284 468.798 88.3672C467.613 89.0443 466.343 89.5521 464.989 89.8906C463.635 90.1445 462.239 90.4408 460.8 90.7793C459.7 91.4564 458.388 92.1335 456.864 92.8105C455.341 93.403 453.775 93.9531 452.167 94.4609C450.559 94.9688 448.951 95.3919 447.343 95.7305C445.735 95.9844 444.296 96.0267 443.026 95.8574C439.979 96.9577 437.017 97.7194 434.14 98.1426C431.262 98.5658 427.877 98.3542 423.983 97.5078ZM425.634 51.2969C424.787 53.2435 423.772 55.0208 422.587 56.6289C421.487 58.1523 420.386 59.7181 419.286 61.3262C418.186 62.9342 417.213 64.6693 416.366 66.5312C415.604 68.3086 415.181 70.4245 415.097 72.8789C416.789 74.3177 418.778 75.2064 421.063 75.5449C423.433 75.7988 425.845 75.8411 428.3 75.6719C430.754 75.418 433.209 75.0794 435.663 74.6562C438.118 74.2331 440.318 74.0215 442.265 74.0215C442.265 73.2598 442.603 72.8789 443.28 72.8789C446.835 72.5404 450.136 71.5671 453.183 69.959C456.229 68.2663 459.403 66.5736 462.704 64.8809C463.127 63.8652 463.677 62.9766 464.354 62.2148C465.032 61.4531 465.412 60.3529 465.497 58.9141C465.074 58.1523 464.778 57.5176 464.608 57.0098C464.524 56.502 464.481 55.7402 464.481 54.7246C462.281 51.6777 460.377 48.377 458.769 44.8223C457.16 41.1829 455.299 37.7552 453.183 34.5391C453.013 34.9622 452.675 35.3854 452.167 35.8086C451.659 36.2318 451.109 36.1471 450.517 35.5547C450.263 36.401 449.882 36.9935 449.374 37.332C448.866 37.5859 448.274 37.7129 447.597 37.7129C447.004 37.7129 446.369 37.5859 445.692 37.332C445.1 37.0781 444.55 36.7396 444.042 36.3164C441.08 38.6862 438.118 40.9714 435.155 43.1719C432.278 45.3724 429.654 47.9538 427.284 50.916C426.861 51.1699 426.607 51.2546 426.522 51.1699C426.438 51.0853 426.142 51.1276 425.634 51.2969ZM568.837 97.5078C565.113 98.0156 561.728 97.8464 558.681 97C555.634 96.1536 552.883 94.8418 550.429 93.0645C548.059 91.2871 545.985 89.1712 544.208 86.7168C542.515 84.2624 541.119 81.6387 540.019 78.8457C539.257 73.0905 539.468 67.8854 540.653 63.2305C541.838 58.4909 543.573 54.1322 545.858 50.1543C548.144 46.1764 550.725 42.4525 553.603 38.9824C556.565 35.5124 559.4 32.1693 562.108 28.9531C562.701 29.207 563.166 29.207 563.505 28.9531C563.928 28.6992 564.267 28.3607 564.521 27.9375C564.859 27.5143 565.198 27.0911 565.536 26.668C565.959 26.2448 566.425 25.9486 566.933 25.7793C567.271 25.0176 567.694 24.3828 568.202 23.875C568.795 23.3672 569.387 22.9017 569.979 22.4785C570.657 21.9707 571.249 21.4629 571.757 20.9551C572.349 20.4473 572.857 19.8125 573.28 19.0508C574.127 18.8815 574.846 18.5853 575.438 18.1621C576.116 17.7389 576.708 17.2734 577.216 16.7656C577.808 16.2578 578.401 15.7923 578.993 15.3691C579.586 14.946 580.305 14.6074 581.151 14.3535V12.7031C583.013 11.8568 584.368 10.9258 585.214 9.91016C586.06 8.89453 587.076 7.58268 588.261 5.97461C589.192 5.88997 589.911 5.84766 590.419 5.84766C591.011 5.84766 591.9 5.76302 593.085 5.59375C593.847 4.15495 594.566 3.09701 595.243 2.41992C595.92 1.74284 596.894 0.98112 598.163 0.134766C599.433 0.811849 600.787 1.23503 602.226 1.4043C603.664 1.48893 604.976 2.1237 606.161 3.30859C606.246 4.32422 606.542 5.12826 607.05 5.7207C607.558 6.22852 608.108 6.73633 608.7 7.24414C609.293 7.66732 609.885 8.13281 610.478 8.64062C611.07 9.14844 611.451 9.86784 611.62 10.7988C612.043 10.7988 612.297 10.7142 612.382 10.5449C612.551 10.3757 612.847 10.3333 613.271 10.418C613.44 11.0951 613.609 11.6452 613.778 12.0684C613.948 12.4915 614.117 12.8724 614.286 13.2109C614.54 13.5495 614.752 13.9303 614.921 14.3535C615.175 14.7767 615.386 15.2845 615.556 15.877C615.132 16.8926 614.752 17.9928 614.413 19.1777C614.075 20.278 613.397 21.0397 612.382 21.4629C612.382 22.14 612.636 22.5208 613.144 22.6055C613.651 22.6055 613.948 22.9017 614.032 23.4941C614.117 24.2559 613.99 24.8906 613.651 25.3984C616.021 29.3763 618.179 33.5658 620.126 37.9668C622.073 42.2832 624.273 46.4303 626.728 50.4082C626.558 51.5931 626.601 52.778 626.854 53.9629C627.193 55.0632 627.574 56.1634 627.997 57.2637C628.505 58.3639 628.97 59.4642 629.394 60.5645C629.817 61.6647 630.113 62.765 630.282 63.8652C630.451 65.304 630.451 66.8698 630.282 68.5625C630.113 70.1706 629.774 71.7363 629.267 73.2598C628.759 74.7832 628.082 76.222 627.235 77.5762C626.389 78.8457 625.416 79.819 624.315 80.4961C622.961 82.1888 621.269 83.5853 619.237 84.6855C617.206 85.7012 615.344 86.9284 613.651 88.3672C612.466 89.0443 611.197 89.5521 609.843 89.8906C608.489 90.1445 607.092 90.4408 605.653 90.7793C604.553 91.4564 603.241 92.1335 601.718 92.8105C600.194 93.403 598.629 93.9531 597.021 94.4609C595.412 94.9688 593.804 95.3919 592.196 95.7305C590.588 95.9844 589.149 96.0267 587.88 95.8574C584.833 96.9577 581.871 97.7194 578.993 98.1426C576.116 98.5658 572.73 98.3542 568.837 97.5078ZM570.487 51.2969C569.641 53.2435 568.625 55.0208 567.44 56.6289C566.34 58.1523 565.24 59.7181 564.14 61.3262C563.039 62.9342 562.066 64.6693 561.22 66.5312C560.458 68.3086 560.035 70.4245 559.95 72.8789C561.643 74.3177 563.632 75.2064 565.917 75.5449C568.287 75.7988 570.699 75.8411 573.153 75.6719C575.608 75.418 578.062 75.0794 580.517 74.6562C582.971 74.2331 585.172 74.0215 587.118 74.0215C587.118 73.2598 587.457 72.8789 588.134 72.8789C591.688 72.5404 594.989 71.5671 598.036 69.959C601.083 68.2663 604.257 66.5736 607.558 64.8809C607.981 63.8652 608.531 62.9766 609.208 62.2148C609.885 61.4531 610.266 60.3529 610.351 58.9141C609.927 58.1523 609.631 57.5176 609.462 57.0098C609.377 56.502 609.335 55.7402 609.335 54.7246C607.134 51.6777 605.23 48.377 603.622 44.8223C602.014 41.1829 600.152 37.7552 598.036 34.5391C597.867 34.9622 597.528 35.3854 597.021 35.8086C596.513 36.2318 595.963 36.1471 595.37 35.5547C595.116 36.401 594.735 36.9935 594.228 37.332C593.72 37.5859 593.127 37.7129 592.45 37.7129C591.858 37.7129 591.223 37.5859 590.546 37.332C589.953 37.0781 589.403 36.7396 588.896 36.3164C585.933 38.6862 582.971 40.9714 580.009 43.1719C577.131 45.3724 574.507 47.9538 572.138 50.916C571.715 51.1699 571.461 51.2546 571.376 51.1699C571.291 51.0853 570.995 51.1276 570.487 51.2969ZM657.958 85.0664C657.112 85.7435 656.604 86.6322 656.435 87.7324C656.265 88.748 656.054 89.7637 655.8 90.7793C655.546 91.7949 655.08 92.6836 654.403 93.4453C653.811 94.1224 652.711 94.4186 651.103 94.334C650.764 94.7572 650.679 95.0111 650.849 95.0957C651.103 95.1803 651.314 95.5612 651.483 96.2383C650.299 96.069 649.452 96.1536 648.944 96.4922C648.437 96.8307 647.802 97.0846 647.04 97.2539C645.093 96.6615 643.443 95.6035 642.089 94.0801C640.819 92.472 639.677 90.737 638.661 88.875C637.73 87.013 636.884 85.1087 636.122 83.1621C635.445 81.2155 634.726 79.5228 633.964 78.084C633.964 77.7454 634.133 77.6185 634.472 77.7031C634.726 77.7031 634.979 77.7031 635.233 77.7031C634.81 76.8568 634.514 75.9258 634.345 74.9102C634.091 73.8099 633.668 72.9212 633.075 72.2441C635.53 66.9967 638.153 61.5378 640.946 55.8672C643.739 50.112 646.532 44.3145 649.325 38.4746C652.203 32.5501 655.038 26.6257 657.831 20.7012C660.709 14.6921 663.459 8.8099 666.083 3.05469C668.453 3.90104 670.738 4.91667 672.938 6.10156C675.224 7.20182 677.297 8.51367 679.159 10.0371C681.021 11.5605 682.587 13.3379 683.856 15.3691C685.211 17.3158 686.099 19.5586 686.522 22.0977C686.353 22.6055 686.142 22.7747 685.888 22.6055C685.634 22.4362 685.422 22.5208 685.253 22.8594C685.676 23.3672 685.888 23.748 685.888 24.002C685.972 24.1712 685.972 24.3828 685.888 24.6367C685.803 24.806 685.761 25.0599 685.761 25.3984C685.761 25.737 685.972 26.2025 686.396 26.7949C685.972 26.7103 685.676 26.7949 685.507 27.0488C685.338 27.2181 685.041 27.2181 684.618 27.0488C685.041 28.2337 685.168 29.1647 684.999 29.8418C684.83 30.5189 684.576 31.1536 684.237 31.7461C683.899 32.2539 683.603 32.8464 683.349 33.5234C683.179 34.1159 683.264 34.9622 683.603 36.0625C683.264 36.0625 683.01 36.1471 682.841 36.3164C682.756 36.401 682.672 36.528 682.587 36.6973C682.502 36.8665 682.375 37.0358 682.206 37.2051C682.121 37.2897 681.91 37.2897 681.571 37.2051C681.825 39.4056 681.91 41.6484 681.825 43.9336C681.741 46.1341 681.656 48.4193 681.571 50.7891C681.487 53.0742 681.487 55.444 681.571 57.8984C681.656 60.3529 681.994 62.8919 682.587 65.5156C686.226 63.3997 689.146 60.6491 691.347 57.2637C693.632 53.8783 695.409 50.112 696.679 45.9648C698.033 41.8177 699.049 37.3743 699.726 32.6348C700.487 27.8952 701.249 23.071 702.011 18.1621C702.942 17.2311 703.661 16.0885 704.169 14.7344C704.761 13.3802 705.227 11.9837 705.565 10.5449C705.989 9.10612 706.369 7.66732 706.708 6.22852C707.131 4.70508 707.681 3.35091 708.358 2.16602C709.882 2.33529 711.151 2.80078 712.167 3.5625C713.267 4.23958 714.283 5.04362 715.214 5.97461C716.145 6.82096 717.118 7.625 718.134 8.38672C719.149 9.14844 720.419 9.65625 721.942 9.91016C723.127 11.6029 724.228 13.2533 725.243 14.8613C726.259 16.3848 726.936 18.1198 727.274 20.0664C726.767 20.9128 726.386 21.8438 726.132 22.8594C725.878 23.875 725.582 24.8906 725.243 25.9062C724.989 26.9219 724.608 27.8529 724.101 28.6992C723.593 29.5456 722.873 30.265 721.942 30.8574C721.688 33.3965 721.308 35.7663 720.8 37.9668C720.292 40.1673 719.826 42.3255 719.403 44.4414C718.98 46.5573 718.599 48.7578 718.261 51.043C717.922 53.3281 717.795 55.8249 717.88 58.5332C717.118 60.9876 716.272 63.5267 715.341 66.1504C714.41 68.6895 713.733 71.0592 713.31 73.2598C711.701 74.5293 710.432 76.0951 709.501 77.957C708.57 79.819 707.597 81.681 706.581 83.543C706.158 83.8815 705.904 83.9661 705.819 83.7969C705.735 83.543 705.354 83.3737 704.677 83.2891C704.761 84.0508 704.592 84.5586 704.169 84.8125C703.83 84.9818 703.873 85.5742 704.296 86.5898C702.857 87.2669 701.588 88.1556 700.487 89.2559C699.387 90.3561 698.16 91.3717 696.806 92.3027C695.536 93.2337 694.013 93.8685 692.235 94.207C690.543 94.4609 688.3 94.0801 685.507 93.0645C681.36 90.0176 677.636 86.5052 674.335 82.5273C671.034 78.5495 668.41 73.8522 666.464 68.4355C665.618 68.6895 664.983 69.2396 664.56 70.0859C664.136 70.9323 663.756 71.821 663.417 72.752C663.078 73.6829 662.74 74.5293 662.401 75.291C662.063 76.0527 661.555 76.4336 660.878 76.4336C660.709 77.1953 660.37 77.9147 659.862 78.5918C659.439 79.1842 659.016 79.819 658.593 80.4961C658.17 81.0885 657.831 81.7656 657.577 82.5273C657.408 83.2891 657.535 84.1354 657.958 85.0664ZM789.989 59.168C791.259 59.3372 792.147 59.6335 792.655 60.0566C793.248 60.4798 793.629 61.0299 793.798 61.707C794.052 62.2995 794.136 62.9766 794.052 63.7383C793.967 64.5 793.925 65.2617 793.925 66.0234C791.809 67.4622 788.889 68.4779 785.165 69.0703C781.441 69.5781 777.548 69.959 773.485 70.2129C769.423 70.3822 765.487 70.4668 761.679 70.4668C757.87 70.4668 754.866 70.5938 752.665 70.8477C748.095 71.3555 744.54 71.8633 742.001 72.3711C739.547 72.7943 737.854 73.2174 736.923 73.6406C735.315 73.556 734.045 73.2598 733.114 72.752C732.183 72.2441 731.422 71.6517 730.829 70.9746C730.237 70.2129 729.729 69.3665 729.306 68.4355C728.882 67.5046 728.375 66.5312 727.782 65.5156C728.121 64.8385 728.205 63.8652 728.036 62.5957C727.867 61.3262 727.359 60.3529 726.513 59.6758C727.19 59.5911 727.698 59.1257 728.036 58.2793C728.375 57.3483 728.375 56.6712 728.036 56.248C729.39 55.9095 730.829 55.6979 732.353 55.6133C733.961 55.444 735.526 55.3171 737.05 55.2324C738.573 55.1478 740.012 55.0208 741.366 54.8516C742.805 54.5977 744.032 54.2168 745.048 53.709C749.28 53.6243 753.638 53.4974 758.124 53.3281C762.694 53.1589 766.968 52.9896 770.946 52.8203C772.385 53.2435 774.078 53.4974 776.024 53.582C777.971 53.582 779.875 53.709 781.737 53.9629C783.599 54.1322 785.292 54.5977 786.815 55.3594C788.339 56.1211 789.397 57.3906 789.989 59.168ZM810.429 92.3027C810.09 91.9642 809.794 91.5833 809.54 91.1602C809.286 90.6523 809.075 90.0176 808.905 89.2559C807.72 87.8171 806.789 86.1667 806.112 84.3047C805.435 82.4427 804.97 80.5384 804.716 78.5918C804.462 76.5605 804.42 74.5293 804.589 72.498C804.758 70.4668 805.054 68.5625 805.478 66.7852C805.731 65.9388 805.943 65.0501 806.112 64.1191C806.535 62.5111 806.959 60.9453 807.382 59.4219C807.805 57.8138 808.44 56.502 809.286 55.4863C808.948 54.5553 808.99 53.5397 809.413 52.4395C809.836 51.3392 810.259 50.3236 810.683 49.3926C810.852 49.1387 810.979 48.9271 811.063 48.7578C811.148 48.5039 811.233 48.2923 811.317 48.123C812.333 45.1608 813.306 42.3255 814.237 39.6172C815.253 36.8242 816.226 34.1582 817.157 31.6191C818.85 26.9642 820.458 22.3939 821.981 17.9082C823.59 13.4225 825.028 8.64062 826.298 3.5625C826.975 3.05469 827.567 2.71615 828.075 2.54688C828.244 2.46224 828.456 2.3776 828.71 2.29297C828.964 2.20833 829.26 2.16602 829.599 2.16602C831.376 3.09701 833.45 3.98568 835.819 4.83203C838.274 5.59375 840.347 5.97461 842.04 5.97461L844.198 7.87891C845.299 9.14844 846.229 10.5026 846.991 11.9414C847.838 13.2956 848.091 15.0729 847.753 17.2734C847.245 18.0352 846.822 18.5007 846.483 18.6699C845.976 20.6165 845.425 22.3516 844.833 23.875C844.241 25.3138 843.648 26.7103 843.056 28.0645C842.379 29.5879 841.744 31.1113 841.151 32.6348C840.559 34.1582 840.051 36.0202 839.628 38.2207C839.12 38.8132 838.782 39.321 838.612 39.7441C838.528 40.1673 838.401 40.5905 838.231 41.0137C838.062 41.5215 837.851 42.0716 837.597 42.6641C837.343 43.1719 836.962 43.6374 836.454 44.0605C836.116 46.6842 835.608 48.8424 834.931 50.5352C834.254 52.1432 833.576 53.7513 832.899 55.3594C831.715 58.3216 830.614 61.2839 829.599 64.2461C828.583 67.1237 827.991 70.4245 827.821 74.1484C828.837 73.8945 829.768 73.7676 830.614 73.7676C831.715 73.7676 832.772 73.9368 833.788 74.2754C836.835 72.752 840.136 71.821 843.69 71.4824C847.33 71.1439 850.927 70.9323 854.481 70.8477C857.444 70.8477 860.194 70.7207 862.733 70.4668C863.58 71.0592 864.13 71.3978 864.384 71.4824C864.638 71.4824 865.061 71.4824 865.653 71.4824C865.907 71.4824 866.161 71.4824 866.415 71.4824C866.669 71.4824 867.007 71.5247 867.431 71.6094C868.616 72.7943 869.758 73.6406 870.858 74.1484C871.959 74.5716 873.144 74.9948 874.413 75.418C875.513 75.8411 876.571 76.3066 877.587 76.8145C878.687 77.2376 879.745 77.8301 880.761 78.5918L881.903 85.0664C882.58 85.9974 882.877 86.6322 882.792 86.9707C882.792 87.6478 882.623 88.2402 882.284 88.748L882.538 90.3984C880.93 90.737 879.872 91.1178 879.364 91.541C878.856 91.8796 878.306 92.3451 877.714 92.9375C876.783 93.0221 875.894 93.0645 875.048 93.0645C873.355 93.0645 871.62 93.3184 869.843 93.8262C867.304 92.8952 864.511 92.4297 861.464 92.4297C860.279 92.4297 859.052 92.472 857.782 92.5566C856.597 92.6413 855.412 92.7682 854.228 92.9375C852.958 93.1068 851.688 93.276 850.419 93.4453C849.149 93.5299 847.88 93.5723 846.61 93.5723C845.595 93.7415 844.875 93.8685 844.452 93.9531C844.029 94.0378 843.606 94.1647 843.183 94.334C840.305 95.265 837.174 96.196 833.788 97.127C830.487 98.0579 827.144 98.5234 823.759 98.5234C818.765 98.5234 814.745 97.2539 811.698 94.7148C811.36 93.9531 811.106 93.4453 810.937 93.1914C810.767 92.9375 810.598 92.6413 810.429 92.3027ZM912.372 88.1133C912.795 90.6523 912.626 92.6413 911.864 94.0801C911.187 95.5189 910.172 96.5768 908.817 97.2539C907.548 98.0156 906.067 98.4388 904.374 98.5234C902.681 98.6081 901.073 98.5234 899.55 98.2695C898.703 97.0846 897.942 95.6035 897.265 93.8262C896.588 92.0488 895.953 90.2292 895.36 88.3672C894.768 86.4206 894.218 84.5163 893.71 82.6543C893.287 80.7923 892.906 79.1419 892.567 77.7031C892.991 76.6875 893.244 75.5449 893.329 74.2754C893.498 72.9212 893.583 71.5671 893.583 70.2129C893.668 68.8587 893.71 67.5046 893.71 66.1504C893.795 64.7116 893.922 63.3574 894.091 62.0879C894.683 58.5332 895.53 55.1478 896.63 51.9316C897.815 48.7155 898.746 45.3724 899.423 41.9023C899.592 41.1406 899.507 40.4212 899.169 39.7441C898.915 39.0671 898.873 38.4323 899.042 37.8398C899.127 37.5013 899.381 37.2897 899.804 37.2051C900.227 37.0358 900.481 36.7396 900.565 36.3164C900.819 35.3854 900.862 34.6237 900.692 34.0312C900.608 33.4388 900.777 32.7194 901.2 31.873C901.623 31.196 902.131 30.2227 902.724 28.9531C903.401 27.599 903.655 26.2025 903.485 24.7637C904.247 24.2559 904.966 23.6634 905.644 22.9863C906.321 22.3092 906.998 21.7168 907.675 21.209C908.437 20.6165 909.241 20.1087 910.087 19.6855C911.018 19.2624 912.118 19.0508 913.388 19.0508C914.065 19.8971 914.488 20.8281 914.657 21.8438C914.911 22.8594 915.123 23.875 915.292 24.8906C915.546 25.9062 915.884 26.8796 916.308 27.8105C916.731 28.6569 917.45 29.334 918.466 29.8418C918.466 30.5189 918.466 31.3652 918.466 32.3809C918.466 33.3965 918.508 34.4121 918.593 35.4277C918.677 36.3587 918.847 37.2474 919.101 38.0938C919.439 38.8555 919.947 39.3633 920.624 39.6172C919.101 43.6797 917.662 47.6999 916.308 51.6777C915.038 55.6556 913.98 59.6758 913.134 63.7383C912.287 67.7161 911.737 71.7363 911.483 75.7988C911.314 79.8613 911.61 83.9661 912.372 88.1133ZM950.077 85.0664C949.231 85.7435 948.723 86.6322 948.554 87.7324C948.384 88.748 948.173 89.7637 947.919 90.7793C947.665 91.7949 947.2 92.6836 946.522 93.4453C945.93 94.1224 944.83 94.4186 943.222 94.334C942.883 94.7572 942.799 95.0111 942.968 95.0957C943.222 95.1803 943.433 95.5612 943.603 96.2383C942.418 96.069 941.571 96.1536 941.063 96.4922C940.556 96.8307 939.921 97.0846 939.159 97.2539C937.213 96.6615 935.562 95.6035 934.208 94.0801C932.938 92.472 931.796 90.737 930.78 88.875C929.849 87.013 929.003 85.1087 928.241 83.1621C927.564 81.2155 926.845 79.5228 926.083 78.084C926.083 77.7454 926.252 77.6185 926.591 77.7031C926.845 77.7031 927.099 77.7031 927.353 77.7031C926.929 76.8568 926.633 75.9258 926.464 74.9102C926.21 73.8099 925.787 72.9212 925.194 72.2441C927.649 66.9967 930.272 61.5378 933.065 55.8672C935.858 50.112 938.651 44.3145 941.444 38.4746C944.322 32.5501 947.157 26.6257 949.95 20.7012C952.828 14.6921 955.578 8.8099 958.202 3.05469C960.572 3.90104 962.857 4.91667 965.058 6.10156C967.343 7.20182 969.416 8.51367 971.278 10.0371C973.14 11.5605 974.706 13.3379 975.976 15.3691C977.33 17.3158 978.218 19.5586 978.642 22.0977C978.472 22.6055 978.261 22.7747 978.007 22.6055C977.753 22.4362 977.541 22.5208 977.372 22.8594C977.795 23.3672 978.007 23.748 978.007 24.002C978.091 24.1712 978.091 24.3828 978.007 24.6367C977.922 24.806 977.88 25.0599 977.88 25.3984C977.88 25.737 978.091 26.2025 978.515 26.7949C978.091 26.7103 977.795 26.7949 977.626 27.0488C977.457 27.2181 977.16 27.2181 976.737 27.0488C977.16 28.2337 977.287 29.1647 977.118 29.8418C976.949 30.5189 976.695 31.1536 976.356 31.7461C976.018 32.2539 975.722 32.8464 975.468 33.5234C975.299 34.1159 975.383 34.9622 975.722 36.0625C975.383 36.0625 975.129 36.1471 974.96 36.3164C974.875 36.401 974.791 36.528 974.706 36.6973C974.621 36.8665 974.494 37.0358 974.325 37.2051C974.241 37.2897 974.029 37.2897 973.69 37.2051C973.944 39.4056 974.029 41.6484 973.944 43.9336C973.86 46.1341 973.775 48.4193 973.69 50.7891C973.606 53.0742 973.606 55.444 973.69 57.8984C973.775 60.3529 974.114 62.8919 974.706 65.5156C978.345 63.3997 981.265 60.6491 983.466 57.2637C985.751 53.8783 987.528 50.112 988.798 45.9648C990.152 41.8177 991.168 37.3743 991.845 32.6348C992.606 27.8952 993.368 23.071 994.13 18.1621C995.061 17.2311 995.78 16.0885 996.288 14.7344C996.881 13.3802 997.346 11.9837 997.685 10.5449C998.108 9.10612 998.489 7.66732 998.827 6.22852C999.25 4.70508 999.8 3.35091 1000.48 2.16602C1002 2.33529 1003.27 2.80078 1004.29 3.5625C1005.39 4.23958 1006.4 5.04362 1007.33 5.97461C1008.26 6.82096 1009.24 7.625 1010.25 8.38672C1011.27 9.14844 1012.54 9.65625 1014.06 9.91016C1015.25 11.6029 1016.35 13.2533 1017.36 14.8613C1018.38 16.3848 1019.06 18.1198 1019.39 20.0664C1018.89 20.9128 1018.5 21.8438 1018.25 22.8594C1018 23.875 1017.7 24.8906 1017.36 25.9062C1017.11 26.9219 1016.73 27.8529 1016.22 28.6992C1015.71 29.5456 1014.99 30.265 1014.06 30.8574C1013.81 33.3965 1013.43 35.7663 1012.92 37.9668C1012.41 40.1673 1011.95 42.3255 1011.52 44.4414C1011.1 46.5573 1010.72 48.7578 1010.38 51.043C1010.04 53.3281 1009.91 55.8249 1010 58.5332C1009.24 60.9876 1008.39 63.5267 1007.46 66.1504C1006.53 68.6895 1005.85 71.0592 1005.43 73.2598C1003.82 74.5293 1002.55 76.0951 1001.62 77.957C1000.69 79.819 999.716 81.681 998.7 83.543C998.277 83.8815 998.023 83.9661 997.938 83.7969C997.854 83.543 997.473 83.3737 996.796 83.2891C996.881 84.0508 996.711 84.5586 996.288 84.8125C995.95 84.9818 995.992 85.5742 996.415 86.5898C994.976 87.2669 993.707 88.1556 992.606 89.2559C991.506 90.3561 990.279 91.3717 988.925 92.3027C987.655 93.2337 986.132 93.8685 984.354 94.207C982.662 94.4609 980.419 94.0801 977.626 93.0645C973.479 90.0176 969.755 86.5052 966.454 82.5273C963.153 78.5495 960.53 73.8522 958.583 68.4355C957.737 68.6895 957.102 69.2396 956.679 70.0859C956.256 70.9323 955.875 71.821 955.536 72.752C955.198 73.6829 954.859 74.5293 954.521 75.291C954.182 76.0527 953.674 76.4336 952.997 76.4336C952.828 77.1953 952.489 77.9147 951.981 78.5918C951.558 79.1842 951.135 79.819 950.712 80.4961C950.289 81.0885 949.95 81.7656 949.696 82.5273C949.527 83.2891 949.654 84.1354 950.077 85.0664ZM1023.2 92.6836C1022.53 92.0065 1022.02 91.2025 1021.68 90.2715C1021.42 89.3405 1020.75 88.5788 1019.65 87.9863C1019.48 86.7168 1019.22 85.278 1018.89 83.6699C1018.63 81.9772 1018.34 80.2845 1018 78.5918C1017.74 76.8145 1017.53 75.0794 1017.36 73.3867C1017.28 71.6094 1017.36 70.0013 1017.62 68.5625C1017.79 67.8008 1018.04 67.0814 1018.38 66.4043C1018.8 65.7272 1019.18 65.0924 1019.52 64.5C1019.94 63.8229 1020.24 63.1458 1020.41 62.4688C1020.66 61.7917 1020.71 61.1146 1020.54 60.4375C1021.04 60.3529 1021.34 60.099 1021.42 59.6758C1021.59 59.168 1022.02 58.9987 1022.69 59.168C1023.29 57.306 1023.92 55.571 1024.6 53.9629C1025.28 52.3548 1026 50.7891 1026.76 49.2656C1027.52 47.7422 1028.28 46.2188 1029.04 44.6953C1029.89 43.0872 1030.65 41.3099 1031.33 39.3633C1029.89 38.0091 1028.83 36.5703 1028.15 35.0469C1027.56 33.4388 1027.1 31.8307 1026.76 30.2227C1026.42 28.6146 1026.16 27.0065 1026 25.3984C1025.83 23.7057 1025.49 22.013 1024.98 20.3203C1026 18.7969 1027.22 17.5697 1028.66 16.6387C1030.1 15.623 1031.67 14.819 1033.36 14.2266C1035.14 13.5495 1037.04 13.0417 1039.07 12.7031C1041.1 12.2799 1043.26 11.8145 1045.55 11.3066C1049.61 10.0371 1053.25 9.0638 1056.46 8.38672C1059.68 7.625 1062.81 7.03255 1065.86 6.60938C1068.91 6.10156 1072.08 5.67839 1075.38 5.33984C1078.68 4.91667 1082.49 4.32422 1086.81 3.5625C1086.89 3.81641 1087.02 3.94336 1087.19 3.94336C1087.44 3.94336 1087.74 3.94336 1088.08 3.94336C1088.33 4.53581 1088.79 4.83203 1089.47 4.83203C1089.47 4.57812 1089.43 4.36654 1089.34 4.19727C1089.34 3.94336 1089.34 3.73177 1089.34 3.5625C1089.51 3.5625 1089.73 3.60482 1089.98 3.68945C1090.32 3.77409 1090.57 3.85872 1090.74 3.94336C1091 4.02799 1091.21 4.02799 1091.38 3.94336C1091.55 3.77409 1091.59 3.47786 1091.5 3.05469C1092.52 4.83203 1093.83 6.31315 1095.44 7.49805C1097.05 8.59831 1098.82 9.57161 1100.77 10.418C1100.86 11.1797 1100.86 11.7298 1100.77 12.0684C1100.77 12.4069 1100.73 12.7454 1100.64 13.084C1100.56 13.3379 1100.52 13.6764 1100.52 14.0996C1100.52 14.4382 1100.6 14.946 1100.77 15.623C1099.42 17.9082 1097.85 19.6855 1096.07 20.9551C1094.38 22.2246 1092.56 23.1979 1090.61 23.875C1088.67 24.5521 1086.59 25.0599 1084.39 25.3984C1082.28 25.737 1080.08 26.1178 1077.79 26.541C1075.59 26.8796 1073.35 27.3874 1071.06 28.0645C1068.78 28.7415 1066.54 29.7572 1064.33 31.1113C1063.66 30.8574 1063.02 30.7728 1062.43 30.8574C1061.92 30.8574 1061.37 30.9421 1060.78 31.1113C1060.19 31.2806 1059.51 31.4499 1058.75 31.6191C1058.07 31.7884 1057.23 31.7884 1056.21 31.6191C1055.53 32.2116 1054.73 32.6348 1053.8 32.8887C1052.95 33.1426 1052.06 33.3965 1051.13 33.6504C1051.56 34.5814 1051.72 35.5124 1051.64 36.4434C1051.64 37.3743 1051.77 38.1784 1052.02 38.8555C1055.58 39.194 1059.51 39.194 1063.83 38.8555C1068.14 38.4323 1072.38 38.1361 1076.52 37.9668C1076.61 38.39 1076.56 38.6862 1076.4 38.8555C1076.23 39.0247 1076.14 39.321 1076.14 39.7441C1076.9 40.252 1077.62 40.8867 1078.3 41.6484C1078.98 42.4102 1079.65 43.1719 1080.33 43.9336C1081.09 44.6107 1081.85 45.2031 1082.62 45.7109C1083.38 46.1341 1084.27 46.3034 1085.28 46.2188C1085.71 47.0651 1086 47.9538 1086.17 48.8848C1086.34 49.8158 1086.21 50.7891 1085.79 51.8047C1084.1 52.9049 1082.45 54.0475 1080.84 55.2324C1079.23 56.3327 1077.54 57.3483 1075.76 58.2793C1074.07 59.2103 1072.21 59.972 1070.17 60.5645C1068.14 61.1569 1065.94 61.4108 1063.57 61.3262C1063.15 61.3262 1062.77 61.3262 1062.43 61.3262C1062.18 61.3262 1061.84 61.1569 1061.42 60.8184C1060.57 61.2415 1059.43 61.4108 1057.99 61.3262C1056.63 61.1569 1055.49 61.2839 1054.56 61.707C1053.37 61.2839 1051.98 61.0723 1050.37 61.0723C1048.85 61.0723 1047.49 60.8607 1046.31 60.4375C1044.78 62.638 1043.35 64.9655 1041.99 67.4199C1040.64 69.7897 1039.45 72.3288 1038.44 75.0371C1041.91 75.5449 1044.78 75.7565 1047.07 75.6719C1049.35 75.5872 1051.51 75.418 1053.54 75.1641C1055.58 74.9102 1057.65 74.6562 1059.76 74.4023C1061.97 74.1484 1064.63 74.0638 1067.76 74.1484C1069.88 73.1328 1072.29 72.4557 1075 72.1172C1077.79 71.694 1080.37 71.1016 1082.74 70.3398C1083.59 70.5938 1084.31 71.1016 1084.9 71.8633C1085.49 72.5404 1086.04 73.2598 1086.55 74.0215C1087.14 74.6986 1087.74 75.291 1088.33 75.7988C1088.92 76.3066 1089.68 76.4759 1090.61 76.3066C1091.04 76.7298 1091.29 77.2376 1091.38 77.8301C1091.55 78.4225 1091.67 78.9727 1091.76 79.4805C1091.93 79.9883 1092.14 80.4115 1092.39 80.75C1092.65 81.0039 1093.11 81.0885 1093.79 81.0039C1092.18 84.3047 1090.36 86.8438 1088.33 88.6211C1086.38 90.3984 1084.14 91.7949 1081.6 92.8105C1079.15 93.7415 1076.35 94.4609 1073.22 94.9688C1070.17 95.3919 1066.75 95.9421 1062.94 96.6191C1062.01 96.7884 1061.2 96.7884 1060.53 96.6191C1059.93 96.3652 1059.3 96.2383 1058.62 96.2383C1056.25 96.6615 1053.42 97.0846 1050.12 97.5078C1046.9 97.931 1043.64 98.1003 1040.34 98.0156C1037.04 97.931 1033.87 97.5078 1030.82 96.7461C1027.77 95.9844 1025.23 94.6302 1023.2 92.6836Z" fill="black"/>
</svg>
