<svg width="849" height="99" viewBox="0 0 849 99" fill="none" xmlns="http://www.w3.org/2000/svg">
<path d="M25.3672 85.0664C24.5208 85.7435 24.013 86.6322 23.8438 87.7324C23.6745 88.748 23.4629 89.7637 23.209 90.7793C22.9551 91.7949 22.4896 92.6836 21.8125 93.4453C21.2201 94.1224 20.1198 94.4186 18.5117 94.334C18.1732 94.7572 18.0885 95.0111 18.2578 95.0957C18.5117 95.1803 18.7233 95.5612 18.8926 96.2383C17.7077 96.069 16.8613 96.1536 16.3535 96.4922C15.8457 96.8307 15.2109 97.0846 14.4492 97.2539C12.5026 96.6615 10.8522 95.6035 9.49805 94.0801C8.22852 92.472 7.08594 90.737 6.07031 88.875C5.13932 87.013 4.29297 85.1087 3.53125 83.1621C2.85417 81.2155 2.13477 79.5228 1.37305 78.084C1.37305 77.7454 1.54232 77.6185 1.88086 77.7031C2.13477 77.7031 2.38867 77.7031 2.64258 77.7031C2.2194 76.8568 1.92318 75.9258 1.75391 74.9102C1.5 73.8099 1.07682 72.9212 0.484375 72.2441C2.9388 66.9967 5.5625 61.5378 8.35547 55.8672C11.1484 50.112 13.9414 44.3145 16.7344 38.4746C19.612 32.5501 22.4473 26.6257 25.2402 20.7012C28.1178 14.6921 30.8685 8.8099 33.4922 3.05469C35.862 3.90104 38.1471 4.91667 40.3477 6.10156C42.6328 7.20182 44.7064 8.51367 46.5684 10.0371C48.4303 11.5605 49.9961 13.3379 51.2656 15.3691C52.6198 17.3158 53.5085 19.5586 53.9316 22.0977C53.7624 22.6055 53.5508 22.7747 53.2969 22.6055C53.043 22.4362 52.8314 22.5208 52.6621 22.8594C53.0853 23.3672 53.2969 23.748 53.2969 24.002C53.3815 24.1712 53.3815 24.3828 53.2969 24.6367C53.2122 24.806 53.1699 25.0599 53.1699 25.3984C53.1699 25.737 53.3815 26.2025 53.8047 26.7949C53.3815 26.7103 53.0853 26.7949 52.916 27.0488C52.7467 27.2181 52.4505 27.2181 52.0273 27.0488C52.4505 28.2337 52.5775 29.1647 52.4082 29.8418C52.2389 30.5189 51.985 31.1536 51.6465 31.7461C51.3079 32.2539 51.0117 32.8464 50.7578 33.5234C50.5885 34.1159 50.6732 34.9622 51.0117 36.0625C50.6732 36.0625 50.4193 36.1471 50.25 36.3164C50.1654 36.401 50.0807 36.528 49.9961 36.6973C49.9115 36.8665 49.7845 37.0358 49.6152 37.2051C49.5306 37.2897 49.319 37.2897 48.9805 37.2051C49.2344 39.4056 49.319 41.6484 49.2344 43.9336C49.1497 46.1341 49.0651 48.4193 48.9805 50.7891C48.8958 53.0742 48.8958 55.444 48.9805 57.8984C49.0651 60.3529 49.4036 62.8919 49.9961 65.5156C53.6354 63.3997 56.5553 60.6491 58.7559 57.2637C61.041 53.8783 62.8184 50.112 64.0879 45.9648C65.4421 41.8177 66.4577 37.3743 67.1348 32.6348C67.8965 27.8952 68.6582 23.071 69.4199 18.1621C70.3509 17.2311 71.0703 16.0885 71.5781 14.7344C72.1706 13.3802 72.6361 11.9837 72.9746 10.5449C73.3978 9.10612 73.7786 7.66732 74.1172 6.22852C74.5404 4.70508 75.0905 3.35091 75.7676 2.16602C77.291 2.33529 78.5605 2.80078 79.5762 3.5625C80.6764 4.23958 81.6921 5.04362 82.623 5.97461C83.554 6.82096 84.5273 7.625 85.543 8.38672C86.5586 9.14844 87.8281 9.65625 89.3516 9.91016C90.5365 11.6029 91.6367 13.2533 92.6523 14.8613C93.668 16.3848 94.3451 18.1198 94.6836 20.0664C94.1758 20.9128 93.7949 21.8438 93.541 22.8594C93.2871 23.875 92.9909 24.8906 92.6523 25.9062C92.3984 26.9219 92.0176 27.8529 91.5098 28.6992C91.002 29.5456 90.2826 30.265 89.3516 30.8574C89.0977 33.3965 88.7168 35.7663 88.209 37.9668C87.7012 40.1673 87.2357 42.3255 86.8125 44.4414C86.3893 46.5573 86.0085 48.7578 85.6699 51.043C85.3314 53.3281 85.2044 55.8249 85.2891 58.5332C84.5273 60.9876 83.681 63.5267 82.75 66.1504C81.819 68.6895 81.1419 71.0592 80.7188 73.2598C79.1107 74.5293 77.8411 76.0951 76.9102 77.957C75.9792 79.819 75.0059 81.681 73.9902 83.543C73.5671 83.8815 73.3132 83.9661 73.2285 83.7969C73.1439 83.543 72.763 83.3737 72.0859 83.2891C72.1706 84.0508 72.0013 84.5586 71.5781 84.8125C71.2396 84.9818 71.2819 85.5742 71.7051 86.5898C70.2663 87.2669 68.9967 88.1556 67.8965 89.2559C66.7962 90.3561 65.569 91.3717 64.2148 92.3027C62.9453 93.2337 61.4219 93.8685 59.6445 94.207C57.9518 94.4609 55.709 94.0801 52.916 93.0645C48.7689 90.0176 45.0449 86.5052 41.7441 82.5273C38.4434 78.5495 35.8197 73.8522 33.873 68.4355C33.0267 68.6895 32.3919 69.2396 31.9688 70.0859C31.5456 70.9323 31.1647 71.821 30.8262 72.752C30.4876 73.6829 30.1491 74.5293 29.8105 75.291C29.472 76.0527 28.9642 76.4336 28.2871 76.4336C28.1178 77.1953 27.7793 77.9147 27.2715 78.5918C26.8483 79.1842 26.4251 79.819 26.002 80.4961C25.5788 81.0885 25.2402 81.7656 24.9863 82.5273C24.8171 83.2891 24.944 84.1354 25.3672 85.0664ZM121.979 97.5078C118.255 98.0156 114.869 97.8464 111.822 97C108.775 96.1536 106.025 94.8418 103.57 93.0645C101.201 91.2871 99.127 89.1712 97.3496 86.7168C95.6569 84.2624 94.2604 81.6387 93.1602 78.8457C92.3984 73.0905 92.61 67.8854 93.7949 63.2305C94.9798 58.4909 96.7148 54.1322 99 50.1543C101.285 46.1764 103.867 42.4525 106.744 38.9824C109.706 35.5124 112.542 32.1693 115.25 28.9531C115.842 29.207 116.308 29.207 116.646 28.9531C117.07 28.6992 117.408 28.3607 117.662 27.9375C118.001 27.5143 118.339 27.0911 118.678 26.668C119.101 26.2448 119.566 25.9486 120.074 25.7793C120.413 25.0176 120.836 24.3828 121.344 23.875C121.936 23.3672 122.529 22.9017 123.121 22.4785C123.798 21.9707 124.391 21.4629 124.898 20.9551C125.491 20.4473 125.999 19.8125 126.422 19.0508C127.268 18.8815 127.988 18.5853 128.58 18.1621C129.257 17.7389 129.85 17.2734 130.357 16.7656C130.95 16.2578 131.542 15.7923 132.135 15.3691C132.727 14.946 133.447 14.6074 134.293 14.3535V12.7031C136.155 11.8568 137.509 10.9258 138.355 9.91016C139.202 8.89453 140.217 7.58268 141.402 5.97461C142.333 5.88997 143.053 5.84766 143.561 5.84766C144.153 5.84766 145.042 5.76302 146.227 5.59375C146.988 4.15495 147.708 3.09701 148.385 2.41992C149.062 1.74284 150.035 0.98112 151.305 0.134766C152.574 0.811849 153.928 1.23503 155.367 1.4043C156.806 1.48893 158.118 2.1237 159.303 3.30859C159.387 4.32422 159.684 5.12826 160.191 5.7207C160.699 6.22852 161.249 6.73633 161.842 7.24414C162.434 7.66732 163.027 8.13281 163.619 8.64062C164.212 9.14844 164.592 9.86784 164.762 10.7988C165.185 10.7988 165.439 10.7142 165.523 10.5449C165.693 10.3757 165.989 10.3333 166.412 10.418C166.581 11.0951 166.751 11.6452 166.92 12.0684C167.089 12.4915 167.258 12.8724 167.428 13.2109C167.682 13.5495 167.893 13.9303 168.062 14.3535C168.316 14.7767 168.528 15.2845 168.697 15.877C168.274 16.8926 167.893 17.9928 167.555 19.1777C167.216 20.278 166.539 21.0397 165.523 21.4629C165.523 22.14 165.777 22.5208 166.285 22.6055C166.793 22.6055 167.089 22.9017 167.174 23.4941C167.258 24.2559 167.132 24.8906 166.793 25.3984C169.163 29.3763 171.321 33.5658 173.268 37.9668C175.214 42.2832 177.415 46.4303 179.869 50.4082C179.7 51.5931 179.742 52.778 179.996 53.9629C180.335 55.0632 180.715 56.1634 181.139 57.2637C181.646 58.3639 182.112 59.4642 182.535 60.5645C182.958 61.6647 183.255 62.765 183.424 63.8652C183.593 65.304 183.593 66.8698 183.424 68.5625C183.255 70.1706 182.916 71.7363 182.408 73.2598C181.9 74.7832 181.223 76.222 180.377 77.5762C179.531 78.8457 178.557 79.819 177.457 80.4961C176.103 82.1888 174.41 83.5853 172.379 84.6855C170.348 85.7012 168.486 86.9284 166.793 88.3672C165.608 89.0443 164.339 89.5521 162.984 89.8906C161.63 90.1445 160.234 90.4408 158.795 90.7793C157.695 91.4564 156.383 92.1335 154.859 92.8105C153.336 93.403 151.77 93.9531 150.162 94.4609C148.554 94.9688 146.946 95.3919 145.338 95.7305C143.73 95.9844 142.291 96.0267 141.021 95.8574C137.975 96.9577 135.012 97.7194 132.135 98.1426C129.257 98.5658 125.872 98.3542 121.979 97.5078ZM123.629 51.2969C122.783 53.2435 121.767 55.0208 120.582 56.6289C119.482 58.1523 118.382 59.7181 117.281 61.3262C116.181 62.9342 115.208 64.6693 114.361 66.5312C113.6 68.3086 113.176 70.4245 113.092 72.8789C114.785 74.3177 116.773 75.2064 119.059 75.5449C121.428 75.7988 123.84 75.8411 126.295 75.6719C128.749 75.418 131.204 75.0794 133.658 74.6562C136.113 74.2331 138.313 74.0215 140.26 74.0215C140.26 73.2598 140.598 72.8789 141.275 72.8789C144.83 72.5404 148.131 71.5671 151.178 69.959C154.225 68.2663 157.398 66.5736 160.699 64.8809C161.122 63.8652 161.673 62.9766 162.35 62.2148C163.027 61.4531 163.408 60.3529 163.492 58.9141C163.069 58.1523 162.773 57.5176 162.604 57.0098C162.519 56.502 162.477 55.7402 162.477 54.7246C160.276 51.6777 158.372 48.377 156.764 44.8223C155.156 41.1829 153.294 37.7552 151.178 34.5391C151.008 34.9622 150.67 35.3854 150.162 35.8086C149.654 36.2318 149.104 36.1471 148.512 35.5547C148.258 36.401 147.877 36.9935 147.369 37.332C146.861 37.5859 146.269 37.7129 145.592 37.7129C144.999 37.7129 144.365 37.5859 143.688 37.332C143.095 37.0781 142.545 36.7396 142.037 36.3164C139.075 38.6862 136.113 40.9714 133.15 43.1719C130.273 45.3724 127.649 47.9538 125.279 50.916C124.856 51.1699 124.602 51.2546 124.518 51.1699C124.433 51.0853 124.137 51.1276 123.629 51.2969ZM198.023 87.9863C197.6 87.0553 197.177 86.1667 196.754 85.3203C196.331 84.474 195.908 83.7122 195.484 83.0352C194.469 81.0039 193.58 79.1842 192.818 77.5762C192.057 75.9681 191.337 74.1061 190.66 71.9902C190.914 70.5514 191.337 68.1393 191.93 64.7539C192.607 61.3685 193.368 57.6868 194.215 53.709C195.061 49.6465 195.95 45.5417 196.881 41.3945C197.896 37.2474 198.912 33.6927 199.928 30.7305C200.859 28.1068 201.874 25.3138 202.975 22.3516C204.16 19.3893 205.429 16.681 206.783 14.2266C208.222 11.6875 209.745 9.5293 211.354 7.75195C212.962 5.97461 214.697 4.91667 216.559 4.57812C217.066 5.25521 217.617 5.80534 218.209 6.22852C218.801 6.56706 219.352 6.82096 219.859 6.99023C221.298 9.02148 222.695 10.7565 224.049 12.1953C225.403 13.5495 227.011 14.9036 228.873 16.2578C228.365 18.7969 227.604 21.6322 226.588 24.7637C225.657 27.8105 224.641 30.8997 223.541 34.0312C222.525 37.1628 221.51 40.2096 220.494 43.1719C219.479 46.0495 218.674 48.5462 218.082 50.6621C217.574 52.3548 217.066 54.3014 216.559 56.502C216.135 58.3639 215.67 60.6068 215.162 63.2305C214.739 65.8542 214.316 68.7318 213.893 71.8633C215.077 71.5247 216.389 70.8477 217.828 69.832C219.352 68.8164 220.748 67.7585 222.018 66.6582C223.541 65.3887 225.022 64.0345 226.461 62.5957C228.408 60.6491 230.058 58.8717 231.412 57.2637C232.766 55.6556 233.993 54.0052 235.094 52.3125C236.279 50.5352 237.464 48.6309 238.648 46.5996C239.918 44.4837 241.399 41.987 243.092 39.1094C244.615 36.6549 246.181 34.0312 247.789 31.2383C249.482 28.4453 251.174 25.7793 252.867 23.2402C254.56 20.7012 256.21 18.3737 257.818 16.2578C259.426 14.0573 260.908 12.3646 262.262 11.1797C263.193 12.1107 264.251 13.084 265.436 14.0996C266.705 15.1152 268.059 15.8346 269.498 16.2578C270.09 17.1888 270.641 18.0352 271.148 18.7969C271.741 19.474 272.291 20.151 272.799 20.8281C273.476 21.7591 274.068 22.6055 274.576 23.3672C275.169 24.1289 275.676 24.9753 276.1 25.9062C276.015 26.5833 275.846 27.472 275.592 28.5723C275.423 29.6725 275.211 30.8997 274.957 32.2539C274.703 33.5234 274.407 34.8353 274.068 36.1895C273.814 37.5436 273.561 38.8555 273.307 40.125C272.46 43.9336 271.826 46.8112 271.402 48.7578C270.979 50.7044 270.683 52.2279 270.514 53.3281C270.344 54.4284 270.217 55.3594 270.133 56.1211C270.133 56.8828 270.133 57.9408 270.133 59.2949C270.133 60.3105 270.217 61.3262 270.387 62.3418C270.556 63.2728 270.725 64.2461 270.895 65.2617C271.148 66.1927 271.572 67.0814 272.164 67.9277L278.258 63.2305C279.951 61.9609 281.559 60.1836 283.082 57.8984C284.69 55.5286 286.214 52.8626 287.652 49.9004C289.176 46.8535 290.657 43.5951 292.096 40.125C293.535 36.5703 294.973 32.931 296.412 29.207C297.428 26.4987 298.443 23.8327 299.459 21.209C300.559 18.5007 301.66 15.9616 302.76 13.5918C303.86 11.1374 304.918 8.93685 305.934 6.99023C307.034 4.95898 308.092 3.26628 309.107 1.91211C311.393 3.35091 313.339 4.78971 314.947 6.22852C316.64 7.66732 318.079 9.27539 319.264 11.0527C320.533 12.7454 321.507 14.7344 322.184 17.0195C322.945 19.2201 323.495 21.8438 323.834 24.8906C321.972 28.4453 320.237 32.0846 318.629 35.8086C317.021 39.5326 315.413 43.2988 313.805 47.1074C311.773 52.0163 309.658 56.9251 307.457 61.834C305.341 66.6582 302.971 71.2708 300.348 75.6719C297.724 80.0729 294.762 84.1354 291.461 87.8594C288.245 91.4987 284.521 94.5879 280.289 97.127C279.104 96.873 278.089 96.7461 277.242 96.7461C276.311 96.7461 275.507 96.873 274.83 97.127C274.238 97.3809 273.688 97.7194 273.18 98.1426C269.71 96.5345 266.917 94.1647 264.801 91.0332C262.685 87.8171 260.611 84.2624 258.58 80.3691C258.326 79.7767 258.03 79.2266 257.691 78.7188C257.438 78.1263 257.141 77.5339 256.803 76.9414L254.645 73.0059L253.375 70.5938L251.598 72.2441L248.932 74.6562L247.408 76.1797C244.785 78.6341 242.118 81.0462 239.41 83.416C236.702 85.7012 233.867 87.8171 230.904 89.7637C227.942 91.6257 224.768 93.1491 221.383 94.334C218.082 95.5189 214.527 96.1536 210.719 96.2383C210.042 95.8997 209.407 95.6035 208.814 95.3496C208.307 95.0957 207.799 94.8418 207.291 94.5879C205.344 93.6569 203.736 92.7682 202.467 91.9219C201.197 91.0755 199.716 89.7637 198.023 87.9863ZM396.07 97.5078C392.346 98.0156 388.961 97.8464 385.914 97C382.867 96.1536 380.117 94.8418 377.662 93.0645C375.292 91.2871 373.219 89.1712 371.441 86.7168C369.749 84.2624 368.352 81.6387 367.252 78.8457C366.49 73.0905 366.702 67.8854 367.887 63.2305C369.072 58.4909 370.807 54.1322 373.092 50.1543C375.377 46.1764 377.958 42.4525 380.836 38.9824C383.798 35.5124 386.633 32.1693 389.342 28.9531C389.934 29.207 390.4 29.207 390.738 28.9531C391.161 28.6992 391.5 28.3607 391.754 27.9375C392.092 27.5143 392.431 27.0911 392.77 26.668C393.193 26.2448 393.658 25.9486 394.166 25.7793C394.505 25.0176 394.928 24.3828 395.436 23.875C396.028 23.3672 396.62 22.9017 397.213 22.4785C397.89 21.9707 398.482 21.4629 398.99 20.9551C399.583 20.4473 400.09 19.8125 400.514 19.0508C401.36 18.8815 402.079 18.5853 402.672 18.1621C403.349 17.7389 403.941 17.2734 404.449 16.7656C405.042 16.2578 405.634 15.7923 406.227 15.3691C406.819 14.946 407.538 14.6074 408.385 14.3535V12.7031C410.247 11.8568 411.601 10.9258 412.447 9.91016C413.294 8.89453 414.309 7.58268 415.494 5.97461C416.425 5.88997 417.145 5.84766 417.652 5.84766C418.245 5.84766 419.133 5.76302 420.318 5.59375C421.08 4.15495 421.799 3.09701 422.477 2.41992C423.154 1.74284 424.127 0.98112 425.396 0.134766C426.666 0.811849 428.02 1.23503 429.459 1.4043C430.898 1.48893 432.21 2.1237 433.395 3.30859C433.479 4.32422 433.775 5.12826 434.283 5.7207C434.791 6.22852 435.341 6.73633 435.934 7.24414C436.526 7.66732 437.118 8.13281 437.711 8.64062C438.303 9.14844 438.684 9.86784 438.854 10.7988C439.277 10.7988 439.531 10.7142 439.615 10.5449C439.785 10.3757 440.081 10.3333 440.504 10.418C440.673 11.0951 440.842 11.6452 441.012 12.0684C441.181 12.4915 441.35 12.8724 441.52 13.2109C441.773 13.5495 441.985 13.9303 442.154 14.3535C442.408 14.7767 442.62 15.2845 442.789 15.877C442.366 16.8926 441.985 17.9928 441.646 19.1777C441.308 20.278 440.631 21.0397 439.615 21.4629C439.615 22.14 439.869 22.5208 440.377 22.6055C440.885 22.6055 441.181 22.9017 441.266 23.4941C441.35 24.2559 441.223 24.8906 440.885 25.3984C443.255 29.3763 445.413 33.5658 447.359 37.9668C449.306 42.2832 451.507 46.4303 453.961 50.4082C453.792 51.5931 453.834 52.778 454.088 53.9629C454.426 55.0632 454.807 56.1634 455.23 57.2637C455.738 58.3639 456.204 59.4642 456.627 60.5645C457.05 61.6647 457.346 62.765 457.516 63.8652C457.685 65.304 457.685 66.8698 457.516 68.5625C457.346 70.1706 457.008 71.7363 456.5 73.2598C455.992 74.7832 455.315 76.222 454.469 77.5762C453.622 78.8457 452.649 79.819 451.549 80.4961C450.195 82.1888 448.502 83.5853 446.471 84.6855C444.439 85.7012 442.577 86.9284 440.885 88.3672C439.7 89.0443 438.43 89.5521 437.076 89.8906C435.722 90.1445 434.326 90.4408 432.887 90.7793C431.786 91.4564 430.475 92.1335 428.951 92.8105C427.428 93.403 425.862 93.9531 424.254 94.4609C422.646 94.9688 421.038 95.3919 419.43 95.7305C417.822 95.9844 416.383 96.0267 415.113 95.8574C412.066 96.9577 409.104 97.7194 406.227 98.1426C403.349 98.5658 399.964 98.3542 396.07 97.5078ZM397.721 51.2969C396.874 53.2435 395.859 55.0208 394.674 56.6289C393.574 58.1523 392.473 59.7181 391.373 61.3262C390.273 62.9342 389.299 64.6693 388.453 66.5312C387.691 68.3086 387.268 70.4245 387.184 72.8789C388.876 74.3177 390.865 75.2064 393.15 75.5449C395.52 75.7988 397.932 75.8411 400.387 75.6719C402.841 75.418 405.296 75.0794 407.75 74.6562C410.204 74.2331 412.405 74.0215 414.352 74.0215C414.352 73.2598 414.69 72.8789 415.367 72.8789C418.922 72.5404 422.223 71.5671 425.27 69.959C428.316 68.2663 431.49 66.5736 434.791 64.8809C435.214 63.8652 435.764 62.9766 436.441 62.2148C437.118 61.4531 437.499 60.3529 437.584 58.9141C437.161 58.1523 436.865 57.5176 436.695 57.0098C436.611 56.502 436.568 55.7402 436.568 54.7246C434.368 51.6777 432.464 48.377 430.855 44.8223C429.247 41.1829 427.385 37.7552 425.27 34.5391C425.1 34.9622 424.762 35.3854 424.254 35.8086C423.746 36.2318 423.196 36.1471 422.604 35.5547C422.35 36.401 421.969 36.9935 421.461 37.332C420.953 37.5859 420.361 37.7129 419.684 37.7129C419.091 37.7129 418.456 37.5859 417.779 37.332C417.187 37.0781 416.637 36.7396 416.129 36.3164C413.167 38.6862 410.204 40.9714 407.242 43.1719C404.365 45.3724 401.741 47.9538 399.371 50.916C398.948 51.1699 398.694 51.2546 398.609 51.1699C398.525 51.0853 398.229 51.1276 397.721 51.2969ZM485.191 85.0664C484.345 85.7435 483.837 86.6322 483.668 87.7324C483.499 88.748 483.287 89.7637 483.033 90.7793C482.779 91.7949 482.314 92.6836 481.637 93.4453C481.044 94.1224 479.944 94.4186 478.336 94.334C477.997 94.7572 477.913 95.0111 478.082 95.0957C478.336 95.1803 478.548 95.5612 478.717 96.2383C477.532 96.069 476.686 96.1536 476.178 96.4922C475.67 96.8307 475.035 97.0846 474.273 97.2539C472.327 96.6615 470.676 95.6035 469.322 94.0801C468.053 92.472 466.91 90.737 465.895 88.875C464.964 87.013 464.117 85.1087 463.355 83.1621C462.678 81.2155 461.959 79.5228 461.197 78.084C461.197 77.7454 461.367 77.6185 461.705 77.7031C461.959 77.7031 462.213 77.7031 462.467 77.7031C462.044 76.8568 461.747 75.9258 461.578 74.9102C461.324 73.8099 460.901 72.9212 460.309 72.2441C462.763 66.9967 465.387 61.5378 468.18 55.8672C470.973 50.112 473.766 44.3145 476.559 38.4746C479.436 32.5501 482.271 26.6257 485.064 20.7012C487.942 14.6921 490.693 8.8099 493.316 3.05469C495.686 3.90104 497.971 4.91667 500.172 6.10156C502.457 7.20182 504.531 8.51367 506.393 10.0371C508.255 11.5605 509.82 13.3379 511.09 15.3691C512.444 17.3158 513.333 19.5586 513.756 22.0977C513.587 22.6055 513.375 22.7747 513.121 22.6055C512.867 22.4362 512.656 22.5208 512.486 22.8594C512.91 23.3672 513.121 23.748 513.121 24.002C513.206 24.1712 513.206 24.3828 513.121 24.6367C513.036 24.806 512.994 25.0599 512.994 25.3984C512.994 25.737 513.206 26.2025 513.629 26.7949C513.206 26.7103 512.91 26.7949 512.74 27.0488C512.571 27.2181 512.275 27.2181 511.852 27.0488C512.275 28.2337 512.402 29.1647 512.232 29.8418C512.063 30.5189 511.809 31.1536 511.471 31.7461C511.132 32.2539 510.836 32.8464 510.582 33.5234C510.413 34.1159 510.497 34.9622 510.836 36.0625C510.497 36.0625 510.243 36.1471 510.074 36.3164C509.99 36.401 509.905 36.528 509.82 36.6973C509.736 36.8665 509.609 37.0358 509.439 37.2051C509.355 37.2897 509.143 37.2897 508.805 37.2051C509.059 39.4056 509.143 41.6484 509.059 43.9336C508.974 46.1341 508.889 48.4193 508.805 50.7891C508.72 53.0742 508.72 55.444 508.805 57.8984C508.889 60.3529 509.228 62.8919 509.82 65.5156C513.46 63.3997 516.38 60.6491 518.58 57.2637C520.865 53.8783 522.643 50.112 523.912 45.9648C525.266 41.8177 526.282 37.3743 526.959 32.6348C527.721 27.8952 528.482 23.071 529.244 18.1621C530.175 17.2311 530.895 16.0885 531.402 14.7344C531.995 13.3802 532.46 11.9837 532.799 10.5449C533.222 9.10612 533.603 7.66732 533.941 6.22852C534.365 4.70508 534.915 3.35091 535.592 2.16602C537.115 2.33529 538.385 2.80078 539.4 3.5625C540.501 4.23958 541.516 5.04362 542.447 5.97461C543.378 6.82096 544.352 7.625 545.367 8.38672C546.383 9.14844 547.652 9.65625 549.176 9.91016C550.361 11.6029 551.461 13.2533 552.477 14.8613C553.492 16.3848 554.169 18.1198 554.508 20.0664C554 20.9128 553.619 21.8438 553.365 22.8594C553.111 23.875 552.815 24.8906 552.477 25.9062C552.223 26.9219 551.842 27.8529 551.334 28.6992C550.826 29.5456 550.107 30.265 549.176 30.8574C548.922 33.3965 548.541 35.7663 548.033 37.9668C547.525 40.1673 547.06 42.3255 546.637 44.4414C546.214 46.5573 545.833 48.7578 545.494 51.043C545.156 53.3281 545.029 55.8249 545.113 58.5332C544.352 60.9876 543.505 63.5267 542.574 66.1504C541.643 68.6895 540.966 71.0592 540.543 73.2598C538.935 74.5293 537.665 76.0951 536.734 77.957C535.803 79.819 534.83 81.681 533.814 83.543C533.391 83.8815 533.137 83.9661 533.053 83.7969C532.968 83.543 532.587 83.3737 531.91 83.2891C531.995 84.0508 531.826 84.5586 531.402 84.8125C531.064 84.9818 531.106 85.5742 531.529 86.5898C530.09 87.2669 528.821 88.1556 527.721 89.2559C526.62 90.3561 525.393 91.3717 524.039 92.3027C522.77 93.2337 521.246 93.8685 519.469 94.207C517.776 94.4609 515.533 94.0801 512.74 93.0645C508.593 90.0176 504.869 86.5052 501.568 82.5273C498.268 78.5495 495.644 73.8522 493.697 68.4355C492.851 68.6895 492.216 69.2396 491.793 70.0859C491.37 70.9323 490.989 71.821 490.65 72.752C490.312 73.6829 489.973 74.5293 489.635 75.291C489.296 76.0527 488.788 76.4336 488.111 76.4336C487.942 77.1953 487.604 77.9147 487.096 78.5918C486.673 79.1842 486.249 79.819 485.826 80.4961C485.403 81.0885 485.064 81.7656 484.811 82.5273C484.641 83.2891 484.768 84.1354 485.191 85.0664ZM558.443 92.3027C558.105 91.9642 557.809 91.5833 557.555 91.1602C557.301 90.6523 557.089 90.0176 556.92 89.2559C555.735 87.8171 554.804 86.1667 554.127 84.3047C553.45 82.4427 552.984 80.5384 552.73 78.5918C552.477 76.5605 552.434 74.5293 552.604 72.498C552.773 70.4668 553.069 68.5625 553.492 66.7852C553.746 65.9388 553.958 65.0501 554.127 64.1191C554.55 62.5111 554.973 60.9453 555.396 59.4219C555.82 57.8138 556.454 56.502 557.301 55.4863C556.962 54.5553 557.005 53.5397 557.428 52.4395C557.851 51.3392 558.274 50.3236 558.697 49.3926C558.867 49.1387 558.993 48.9271 559.078 48.7578C559.163 48.5039 559.247 48.2923 559.332 48.123C560.348 45.1608 561.321 42.3255 562.252 39.6172C563.268 36.8242 564.241 34.1582 565.172 31.6191C566.865 26.9642 568.473 22.3939 569.996 17.9082C571.604 13.4225 573.043 8.64062 574.312 3.5625C574.99 3.05469 575.582 2.71615 576.09 2.54688C576.259 2.46224 576.471 2.3776 576.725 2.29297C576.979 2.20833 577.275 2.16602 577.613 2.16602C579.391 3.09701 581.464 3.98568 583.834 4.83203C586.288 5.59375 588.362 5.97461 590.055 5.97461L592.213 7.87891C593.313 9.14844 594.244 10.5026 595.006 11.9414C595.852 13.2956 596.106 15.0729 595.768 17.2734C595.26 18.0352 594.837 18.5007 594.498 18.6699C593.99 20.6165 593.44 22.3516 592.848 23.875C592.255 25.3138 591.663 26.7103 591.07 28.0645C590.393 29.5879 589.758 31.1113 589.166 32.6348C588.574 34.1582 588.066 36.0202 587.643 38.2207C587.135 38.8132 586.796 39.321 586.627 39.7441C586.542 40.1673 586.415 40.5905 586.246 41.0137C586.077 41.5215 585.865 42.0716 585.611 42.6641C585.357 43.1719 584.977 43.6374 584.469 44.0605C584.13 46.6842 583.622 48.8424 582.945 50.5352C582.268 52.1432 581.591 53.7513 580.914 55.3594C579.729 58.3216 578.629 61.2839 577.613 64.2461C576.598 67.1237 576.005 70.4245 575.836 74.1484C576.852 73.8945 577.783 73.7676 578.629 73.7676C579.729 73.7676 580.787 73.9368 581.803 74.2754C584.85 72.752 588.15 71.821 591.705 71.4824C595.344 71.1439 598.941 70.9323 602.496 70.8477C605.458 70.8477 608.209 70.7207 610.748 70.4668C611.594 71.0592 612.145 71.3978 612.398 71.4824C612.652 71.4824 613.076 71.4824 613.668 71.4824C613.922 71.4824 614.176 71.4824 614.43 71.4824C614.684 71.4824 615.022 71.5247 615.445 71.6094C616.63 72.7943 617.773 73.6406 618.873 74.1484C619.973 74.5716 621.158 74.9948 622.428 75.418C623.528 75.8411 624.586 76.3066 625.602 76.8145C626.702 77.2376 627.76 77.8301 628.775 78.5918L629.918 85.0664C630.595 85.9974 630.891 86.6322 630.807 86.9707C630.807 87.6478 630.637 88.2402 630.299 88.748L630.553 90.3984C628.945 90.737 627.887 91.1178 627.379 91.541C626.871 91.8796 626.321 92.3451 625.729 92.9375C624.798 93.0221 623.909 93.0645 623.062 93.0645C621.37 93.0645 619.635 93.3184 617.857 93.8262C615.318 92.8952 612.525 92.4297 609.479 92.4297C608.294 92.4297 607.066 92.472 605.797 92.5566C604.612 92.6413 603.427 92.7682 602.242 92.9375C600.973 93.1068 599.703 93.276 598.434 93.4453C597.164 93.5299 595.895 93.5723 594.625 93.5723C593.609 93.7415 592.89 93.8685 592.467 93.9531C592.044 94.0378 591.62 94.1647 591.197 94.334C588.32 95.265 585.188 96.196 581.803 97.127C578.502 98.0579 575.159 98.5234 571.773 98.5234C566.78 98.5234 562.76 97.2539 559.713 94.7148C559.374 93.9531 559.12 93.4453 558.951 93.1914C558.782 92.9375 558.613 92.6413 558.443 92.3027ZM660.387 88.1133C660.81 90.6523 660.641 92.6413 659.879 94.0801C659.202 95.5189 658.186 96.5768 656.832 97.2539C655.562 98.0156 654.081 98.4388 652.389 98.5234C650.696 98.6081 649.088 98.5234 647.564 98.2695C646.718 97.0846 645.956 95.6035 645.279 93.8262C644.602 92.0488 643.967 90.2292 643.375 88.3672C642.783 86.4206 642.232 84.5163 641.725 82.6543C641.301 80.7923 640.921 79.1419 640.582 77.7031C641.005 76.6875 641.259 75.5449 641.344 74.2754C641.513 72.9212 641.598 71.5671 641.598 70.2129C641.682 68.8587 641.725 67.5046 641.725 66.1504C641.809 64.7116 641.936 63.3574 642.105 62.0879C642.698 58.5332 643.544 55.1478 644.645 51.9316C645.829 48.7155 646.76 45.3724 647.438 41.9023C647.607 41.1406 647.522 40.4212 647.184 39.7441C646.93 39.0671 646.887 38.4323 647.057 37.8398C647.141 37.5013 647.395 37.2897 647.818 37.2051C648.242 37.0358 648.495 36.7396 648.58 36.3164C648.834 35.3854 648.876 34.6237 648.707 34.0312C648.622 33.4388 648.792 32.7194 649.215 31.873C649.638 31.196 650.146 30.2227 650.738 28.9531C651.415 27.599 651.669 26.2025 651.5 24.7637C652.262 24.2559 652.981 23.6634 653.658 22.9863C654.335 22.3092 655.012 21.7168 655.689 21.209C656.451 20.6165 657.255 20.1087 658.102 19.6855C659.033 19.2624 660.133 19.0508 661.402 19.0508C662.079 19.8971 662.503 20.8281 662.672 21.8438C662.926 22.8594 663.137 23.875 663.307 24.8906C663.561 25.9062 663.899 26.8796 664.322 27.8105C664.745 28.6569 665.465 29.334 666.48 29.8418C666.48 30.5189 666.48 31.3652 666.48 32.3809C666.48 33.3965 666.523 34.4121 666.607 35.4277C666.692 36.3587 666.861 37.2474 667.115 38.0938C667.454 38.8555 667.962 39.3633 668.639 39.6172C667.115 43.6797 665.676 47.6999 664.322 51.6777C663.053 55.6556 661.995 59.6758 661.148 63.7383C660.302 67.7161 659.752 71.7363 659.498 75.7988C659.329 79.8613 659.625 83.9661 660.387 88.1133ZM698.092 85.0664C697.245 85.7435 696.738 86.6322 696.568 87.7324C696.399 88.748 696.188 89.7637 695.934 90.7793C695.68 91.7949 695.214 92.6836 694.537 93.4453C693.945 94.1224 692.844 94.4186 691.236 94.334C690.898 94.7572 690.813 95.0111 690.982 95.0957C691.236 95.1803 691.448 95.5612 691.617 96.2383C690.432 96.069 689.586 96.1536 689.078 96.4922C688.57 96.8307 687.936 97.0846 687.174 97.2539C685.227 96.6615 683.577 95.6035 682.223 94.0801C680.953 92.472 679.811 90.737 678.795 88.875C677.864 87.013 677.018 85.1087 676.256 83.1621C675.579 81.2155 674.859 79.5228 674.098 78.084C674.098 77.7454 674.267 77.6185 674.605 77.7031C674.859 77.7031 675.113 77.7031 675.367 77.7031C674.944 76.8568 674.648 75.9258 674.479 74.9102C674.225 73.8099 673.801 72.9212 673.209 72.2441C675.663 66.9967 678.287 61.5378 681.08 55.8672C683.873 50.112 686.666 44.3145 689.459 38.4746C692.337 32.5501 695.172 26.6257 697.965 20.7012C700.842 14.6921 703.593 8.8099 706.217 3.05469C708.587 3.90104 710.872 4.91667 713.072 6.10156C715.357 7.20182 717.431 8.51367 719.293 10.0371C721.155 11.5605 722.721 13.3379 723.99 15.3691C725.344 17.3158 726.233 19.5586 726.656 22.0977C726.487 22.6055 726.275 22.7747 726.021 22.6055C725.768 22.4362 725.556 22.5208 725.387 22.8594C725.81 23.3672 726.021 23.748 726.021 24.002C726.106 24.1712 726.106 24.3828 726.021 24.6367C725.937 24.806 725.895 25.0599 725.895 25.3984C725.895 25.737 726.106 26.2025 726.529 26.7949C726.106 26.7103 725.81 26.7949 725.641 27.0488C725.471 27.2181 725.175 27.2181 724.752 27.0488C725.175 28.2337 725.302 29.1647 725.133 29.8418C724.964 30.5189 724.71 31.1536 724.371 31.7461C724.033 32.2539 723.736 32.8464 723.482 33.5234C723.313 34.1159 723.398 34.9622 723.736 36.0625C723.398 36.0625 723.144 36.1471 722.975 36.3164C722.89 36.401 722.805 36.528 722.721 36.6973C722.636 36.8665 722.509 37.0358 722.34 37.2051C722.255 37.2897 722.044 37.2897 721.705 37.2051C721.959 39.4056 722.044 41.6484 721.959 43.9336C721.874 46.1341 721.79 48.4193 721.705 50.7891C721.62 53.0742 721.62 55.444 721.705 57.8984C721.79 60.3529 722.128 62.8919 722.721 65.5156C726.36 63.3997 729.28 60.6491 731.48 57.2637C733.766 53.8783 735.543 50.112 736.812 45.9648C738.167 41.8177 739.182 37.3743 739.859 32.6348C740.621 27.8952 741.383 23.071 742.145 18.1621C743.076 17.2311 743.795 16.0885 744.303 14.7344C744.895 13.3802 745.361 11.9837 745.699 10.5449C746.122 9.10612 746.503 7.66732 746.842 6.22852C747.265 4.70508 747.815 3.35091 748.492 2.16602C750.016 2.33529 751.285 2.80078 752.301 3.5625C753.401 4.23958 754.417 5.04362 755.348 5.97461C756.279 6.82096 757.252 7.625 758.268 8.38672C759.283 9.14844 760.553 9.65625 762.076 9.91016C763.261 11.6029 764.361 13.2533 765.377 14.8613C766.393 16.3848 767.07 18.1198 767.408 20.0664C766.9 20.9128 766.52 21.8438 766.266 22.8594C766.012 23.875 765.715 24.8906 765.377 25.9062C765.123 26.9219 764.742 27.8529 764.234 28.6992C763.727 29.5456 763.007 30.265 762.076 30.8574C761.822 33.3965 761.441 35.7663 760.934 37.9668C760.426 40.1673 759.96 42.3255 759.537 44.4414C759.114 46.5573 758.733 48.7578 758.395 51.043C758.056 53.3281 757.929 55.8249 758.014 58.5332C757.252 60.9876 756.406 63.5267 755.475 66.1504C754.544 68.6895 753.867 71.0592 753.443 73.2598C751.835 74.5293 750.566 76.0951 749.635 77.957C748.704 79.819 747.73 81.681 746.715 83.543C746.292 83.8815 746.038 83.9661 745.953 83.7969C745.868 83.543 745.488 83.3737 744.811 83.2891C744.895 84.0508 744.726 84.5586 744.303 84.8125C743.964 84.9818 744.007 85.5742 744.43 86.5898C742.991 87.2669 741.721 88.1556 740.621 89.2559C739.521 90.3561 738.294 91.3717 736.939 92.3027C735.67 93.2337 734.146 93.8685 732.369 94.207C730.676 94.4609 728.434 94.0801 725.641 93.0645C721.493 90.0176 717.77 86.5052 714.469 82.5273C711.168 78.5495 708.544 73.8522 706.598 68.4355C705.751 68.6895 705.117 69.2396 704.693 70.0859C704.27 70.9323 703.889 71.821 703.551 72.752C703.212 73.6829 702.874 74.5293 702.535 75.291C702.197 76.0527 701.689 76.4336 701.012 76.4336C700.842 77.1953 700.504 77.9147 699.996 78.5918C699.573 79.1842 699.15 79.819 698.727 80.4961C698.303 81.0885 697.965 81.7656 697.711 82.5273C697.542 83.2891 697.669 84.1354 698.092 85.0664ZM771.217 92.6836C770.54 92.0065 770.032 91.2025 769.693 90.2715C769.439 89.3405 768.762 88.5788 767.662 87.9863C767.493 86.7168 767.239 85.278 766.9 83.6699C766.646 81.9772 766.35 80.2845 766.012 78.5918C765.758 76.8145 765.546 75.0794 765.377 73.3867C765.292 71.6094 765.377 70.0013 765.631 68.5625C765.8 67.8008 766.054 67.0814 766.393 66.4043C766.816 65.7272 767.197 65.0924 767.535 64.5C767.958 63.8229 768.255 63.1458 768.424 62.4688C768.678 61.7917 768.72 61.1146 768.551 60.4375C769.059 60.3529 769.355 60.099 769.439 59.6758C769.609 59.168 770.032 58.9987 770.709 59.168C771.301 57.306 771.936 55.571 772.613 53.9629C773.29 52.3548 774.01 50.7891 774.771 49.2656C775.533 47.7422 776.295 46.2188 777.057 44.6953C777.903 43.0872 778.665 41.3099 779.342 39.3633C777.903 38.0091 776.845 36.5703 776.168 35.0469C775.576 33.4388 775.11 31.8307 774.771 30.2227C774.433 28.6146 774.179 27.0065 774.01 25.3984C773.84 23.7057 773.502 22.013 772.994 20.3203C774.01 18.7969 775.237 17.5697 776.676 16.6387C778.115 15.623 779.68 14.819 781.373 14.2266C783.15 13.5495 785.055 13.0417 787.086 12.7031C789.117 12.2799 791.275 11.8145 793.561 11.3066C797.623 10.0371 801.262 9.0638 804.479 8.38672C807.695 7.625 810.826 7.03255 813.873 6.60938C816.92 6.10156 820.094 5.67839 823.395 5.33984C826.695 4.91667 830.504 4.32422 834.82 3.5625C834.905 3.81641 835.032 3.94336 835.201 3.94336C835.455 3.94336 835.751 3.94336 836.09 3.94336C836.344 4.53581 836.809 4.83203 837.486 4.83203C837.486 4.57812 837.444 4.36654 837.359 4.19727C837.359 3.94336 837.359 3.73177 837.359 3.5625C837.529 3.5625 837.74 3.60482 837.994 3.68945C838.333 3.77409 838.587 3.85872 838.756 3.94336C839.01 4.02799 839.221 4.02799 839.391 3.94336C839.56 3.77409 839.602 3.47786 839.518 3.05469C840.533 4.83203 841.845 6.31315 843.453 7.49805C845.061 8.59831 846.839 9.57161 848.785 10.418C848.87 11.1797 848.87 11.7298 848.785 12.0684C848.785 12.4069 848.743 12.7454 848.658 13.084C848.574 13.3379 848.531 13.6764 848.531 14.0996C848.531 14.4382 848.616 14.946 848.785 15.623C847.431 17.9082 845.865 19.6855 844.088 20.9551C842.395 22.2246 840.576 23.1979 838.629 23.875C836.682 24.5521 834.609 25.0599 832.408 25.3984C830.292 25.737 828.092 26.1178 825.807 26.541C823.606 26.8796 821.363 27.3874 819.078 28.0645C816.793 28.7415 814.55 29.7572 812.35 31.1113C811.673 30.8574 811.038 30.7728 810.445 30.8574C809.938 30.8574 809.387 30.9421 808.795 31.1113C808.202 31.2806 807.525 31.4499 806.764 31.6191C806.087 31.7884 805.24 31.7884 804.225 31.6191C803.548 32.2116 802.743 32.6348 801.812 32.8887C800.966 33.1426 800.077 33.3965 799.146 33.6504C799.57 34.5814 799.739 35.5124 799.654 36.4434C799.654 37.3743 799.781 38.1784 800.035 38.8555C803.59 39.194 807.525 39.194 811.842 38.8555C816.158 38.4323 820.39 38.1361 824.537 37.9668C824.622 38.39 824.579 38.6862 824.41 38.8555C824.241 39.0247 824.156 39.321 824.156 39.7441C824.918 40.252 825.637 40.8867 826.314 41.6484C826.992 42.4102 827.669 43.1719 828.346 43.9336C829.107 44.6107 829.869 45.2031 830.631 45.7109C831.393 46.1341 832.281 46.3034 833.297 46.2188C833.72 47.0651 834.016 47.9538 834.186 48.8848C834.355 49.8158 834.228 50.7891 833.805 51.8047C832.112 52.9049 830.462 54.0475 828.854 55.2324C827.245 56.3327 825.553 57.3483 823.775 58.2793C822.083 59.2103 820.221 59.972 818.189 60.5645C816.158 61.1569 813.958 61.4108 811.588 61.3262C811.165 61.3262 810.784 61.3262 810.445 61.3262C810.191 61.3262 809.853 61.1569 809.43 60.8184C808.583 61.2415 807.441 61.4108 806.002 61.3262C804.648 61.1569 803.505 61.2839 802.574 61.707C801.389 61.2839 799.993 61.0723 798.385 61.0723C796.861 61.0723 795.507 60.8607 794.322 60.4375C792.799 62.638 791.36 64.9655 790.006 67.4199C788.652 69.7897 787.467 72.3288 786.451 75.0371C789.921 75.5449 792.799 75.7565 795.084 75.6719C797.369 75.5872 799.527 75.418 801.559 75.1641C803.59 74.9102 805.663 74.6562 807.779 74.4023C809.98 74.1484 812.646 74.0638 815.777 74.1484C817.893 73.1328 820.305 72.4557 823.014 72.1172C825.807 71.694 828.388 71.1016 830.758 70.3398C831.604 70.5938 832.324 71.1016 832.916 71.8633C833.508 72.5404 834.059 73.2598 834.566 74.0215C835.159 74.6986 835.751 75.291 836.344 75.7988C836.936 76.3066 837.698 76.4759 838.629 76.3066C839.052 76.7298 839.306 77.2376 839.391 77.8301C839.56 78.4225 839.687 78.9727 839.771 79.4805C839.941 79.9883 840.152 80.4115 840.406 80.75C840.66 81.0039 841.126 81.0885 841.803 81.0039C840.195 84.3047 838.375 86.8438 836.344 88.6211C834.397 90.3984 832.154 91.7949 829.615 92.8105C827.161 93.7415 824.368 94.4609 821.236 94.9688C818.189 95.3919 814.762 95.9421 810.953 96.6191C810.022 96.7884 809.218 96.7884 808.541 96.6191C807.949 96.3652 807.314 96.2383 806.637 96.2383C804.267 96.6615 801.432 97.0846 798.131 97.5078C794.915 97.931 791.656 98.1003 788.355 98.0156C785.055 97.931 781.881 97.5078 778.834 96.7461C775.787 95.9844 773.248 94.6302 771.217 92.6836Z" fill="black"/>
</svg>
